SplineFontDB: 3.0
FontName: Yan
FullName: Yan
FamilyName: Yan
Weight: Medium
Copyright: Created by U-IBM-32B233F1397\\aamies,S-1-5-21-1315764455-14696 with FontForge 2.0 (http://fontforge.sf.net)
UComments: "2010-8-1: Created.+AAoA-A Chinese calligraphic font in Yan style." 
Version: 001.000
ItalicAngle: 0
UnderlinePosition: -102.4
UnderlineWidth: 51.2
Ascent: 819
Descent: 205
LayerCount: 2
Layer: 0 0 "Back"  1
Layer: 1 0 "Fore"  0
XUID: [1021 255 356932079 5965476]
OS2Version: 0
OS2_WeightWidthSlopeOnly: 0
OS2_UseTypoMetrics: 1
CreationTime: 1280663572
ModificationTime: 1280669223
OS2TypoAscent: 0
OS2TypoAOffset: 1
OS2TypoDescent: 0
OS2TypoDOffset: 1
OS2TypoLinegap: 0
OS2WinAscent: 0
OS2WinAOffset: 1
OS2WinDescent: 0
OS2WinDOffset: 1
HheadAscent: 0
HheadAOffset: 1
HheadDescent: 0
HheadDOffset: 1
OS2Vendor: 'PfEd'
DEI: 91125
Encoding: UnicodeFull
UnicodeInterp: none
NameList: Adobe Glyph List
DisplaySize: -24
AntiAlias: 1
FitToEm: 1
WinInfo: 20128 17 4
BeginChars: 1114112 73

StartChar: uni4E03
Encoding: 19971 19971 0
Width: 1024
VWidth: 0
Flags: HW
LayerCount: 2
Fore
SplineSet
93 318 m 1
 118 335 144 332 175 331 c 0
 197 330 218 332 238 340 c 0
 368 368 499 389 630 401 c 4
 659 404 687 406 716 408 c 0
 750 410 784 411 818 412 c 1
 841 436 875 427 894 404 c 0
 916 382 909 348 879 338 c 1
 843 340 806 343 770 345 c 0
 629 339 454 305 312 281 c 1
 273 269 244 240 212 217 c 1
 156 213 82 254 93 318 c 1
407 599 m 1
 473 634 514 569 542 516 c 1
 543 399 540 281 563 166 c 1
 601 142 636 133 682 134 c 0
 718 132 771 114 763 69 c 1
 739 47 706 42 677 30 c 1
 632 24 584 23 540 36 c 0
 486 52 450 92 421 139 c 1
 390 206 382 276 389 350 c 1
 388 433 403 516 407 599 c 1
EndSplineSet
EndChar

StartChar: uni4E8E
Encoding: 20110 20110 1
Width: 1024
VWidth: 0
Flags: HW
LayerCount: 2
Fore
SplineSet
362 697 m 1
 376 705 393 706 409 709 c 0
 494 732 579 757 665 780 c 0
 678 786 695 783 705 773 c 0
 722 752 734 710 696 708 c 0
 678 705 662 715 647 722 c 1
 568 695 488 668 407 643 c 1
 389 644 374 655 363 669 c 1
 362 678 363 688 362 697 c 1
205 424 m 1
 272 442 340 458 407 473 c 0
 504 496 603 507 698 536 c 1
 731 536 752 571 785 566 c 1
 812 570 842 559 854 533 c 0
 866 501 829 483 803 482 c 0
 774 478 750 500 721 497 c 0
 639 484 558 463 478 443 c 1
 415 417 354 389 294 357 c 0
 269 346 239 339 213 349 c 0
 183 363 182 404 205 424 c 1
523 690 m 1
 557 683 586 670 611 645 c 1
 615 567 629 490 635 413 c 0
 643 306 646 197 632 90 c 0
 629 46 620 2 603 -39 c 0
 582 -83 561 -131 520 -161 c 0
 479 -195 455 -148 441 -115 c 0
 440 -99 391 -67 424 -65 c 1
 451 -78 489 -81 496 -43 c 0
 511 21 530 85 533 151 c 0
 540 235 540 319 539 403 c 0
 536 471 525 539 517 607 c 1
 519 634 482 679 523 690 c 1
EndSplineSet
EndChar

StartChar: uni4E26
Encoding: 20006 20006 2
Width: 1024
VWidth: 0
Flags: HW
LayerCount: 2
Fore
SplineSet
286 649 m 0
 289 650 293 649 296 650 c 0
 315 655 335 653 354 652 c 1
 368 646 383 639 397 633 c 0
 404 626 410 619 416 612 c 0
 418 609 422 606 421 602 c 0
 416 581 416 560 416 539 c 1
 410 535 403 531 397 527 c 0
 392 528 388 530 383 531 c 0
 366 537 348 536 331 536 c 1
 327 546 324 556 320 566 c 0
 319 570 316 574 311 575 c 0
 295 582 282 591 269 603 c 0
 269 609 269 617 269 623 c 0
 275 632 280 640 286 649 c 0
648 689 m 0
 654 692 661 694 667 697 c 0
 682 694 697 690 712 687 c 1
 725 674 737 660 750 647 c 1
 751 637 752 628 753 618 c 0
 750 608 747 598 744 588 c 0
 742 576 735 565 728 555 c 1
 717 551 706 547 695 543 c 1
 682 546 668 550 655 553 c 1
 648 564 643 576 638 588 c 0
 634 597 631 607 631 617 c 0
 630 628 630 639 633 650 c 0
 635 664 642 676 648 689 c 0
203 414 m 1
 213 420 224 427 234 433 c 1
 263 436 292 438 321 441 c 0
 356 448 390 461 425 470 c 1
 436 480 448 489 459 499 c 0
 466 508 475 511 486 505 c 0
 501 497 501 475 515 463 c 1
 510 446 496 434 483 424 c 0
 460 409 433 400 407 391 c 0
 374 379 340 375 306 368 c 0
 281 363 255 357 230 351 c 0
 217 347 202 351 196 365 c 0
 186 380 197 399 203 414 c 1
583 461 m 0
 588 463 595 464 600 466 c 0
 647 471 693 474 740 479 c 0
 775 483 809 485 844 484 c 0
 855 488 860 467 851 462 c 1
 838 462 824 459 812 454 c 0
 777 438 742 423 705 412 c 0
 688 405 670 404 652 404 c 0
 637 402 622 402 608 405 c 0
 598 409 582 405 578 418 c 1
 567 430 569 452 583 461 c 0
430 385 m 1
 444 383 458 382 472 380 c 0
 482 379 489 369 498 364 c 0
 509 357 512 342 519 332 c 1
 518 318 518 305 517 291 c 0
 514 277 508 264 503 250 c 1
 492 241 476 257 462 252 c 1
 456 238 449 224 443 210 c 0
 408 171 371 134 338 94 c 0
 336 92 335 102 334 105 c 0
 331 114 336 122 338 131 c 0
 350 165 356 201 365 235 c 0
 379 280 393 324 406 369 c 1
 414 374 422 380 430 385 c 1
217 272 m 0
 224 264 231 256 235 246 c 0
 237 239 241 227 250 230 c 0
 261 242 269 257 277 272 c 0
 280 277 282 283 286 288 c 0
 292 291 298 287 301 282 c 0
 310 264 312 244 317 225 c 1
 313 215 309 204 305 194 c 0
 303 185 297 177 289 172 c 0
 279 160 264 156 250 152 c 0
 246 154 242 155 238 157 c 0
 229 158 225 167 222 174 c 0
 221 183 221 193 221 202 c 0
 222 214 215 223 210 233 c 0
 202 244 204 258 204 270 c 0
 208 271 213 271 217 272 c 0
571 329 m 1
 585 326 599 321 613 318 c 1
 624 324 635 329 646 335 c 0
 653 339 664 338 666 329 c 1
 653 310 648 286 645 263 c 0
 645 242 635 224 625 206 c 1
 616 204 606 201 597 199 c 1
 587 204 578 207 568 212 c 1
 561 225 555 238 548 251 c 0
 545 271 546 290 545 310 c 1
 554 316 562 323 571 329 c 1
811 409 m 0
 821 410 832 411 842 412 c 1
 852 406 863 399 873 393 c 1
 881 379 889 366 897 352 c 0
 905 341 908 328 906 315 c 0
 903 299 886 295 875 286 c 0
 853 272 830 257 810 240 c 0
 778 211 743 185 706 163 c 0
 693 157 685 144 671 140 c 0
 655 137 664 150 669 157 c 0
 708 215 739 280 769 343 c 1
 772 363 776 384 781 404 c 1
 791 406 801 407 811 409 c 0
166 35 m 0
 188 41 210 47 232 53 c 0
 290 70 348 86 404 106 c 0
 418 113 433 108 448 108 c 1
 450 93 459 75 444 63 c 0
 409 31 365 11 326 -16 c 0
 307 -31 284 -41 268 -60 c 0
 260 -70 249 -83 234 -78 c 0
 218 -67 201 -55 185 -44 c 1
 172 -23 163 0 149 21 c 1
 155 26 160 30 166 35 c 0
533 72 m 0
 591 83 648 94 705 107 c 0
 735 116 767 116 798 116 c 0
 829 119 859 111 889 106 c 1
 896 99 902 91 909 84 c 0
 917 72 925 56 922 42 c 0
 916 26 900 18 886 10 c 1
 860 9 834 9 808 9 c 0
 734 5 661 5 587 7 c 0
 563 8 540 7 517 14 c 0
 501 20 499 41 500 56 c 1
 511 61 522 67 533 72 c 0
EndSplineSet
EndChar

StartChar: uni4E94
Encoding: 20116 20116 3
Width: 1024
VWidth: 0
Flags: HW
LayerCount: 2
Fore
SplineSet
371 573 m 0
 373 574 375 576 377 577 c 0
 390 587 406 597 423 589 c 1
 447 587 471 590 494 593 c 1
 542 602 591 604 638 618 c 1
 653 621 664 632 676 641 c 1
 692 650 707 633 722 627 c 1
 746 615 752 582 737 561 c 1
 725 542 709 566 694 563 c 1
 634 561 575 548 516 536 c 1
 472 529 430 507 385 506 c 1
 371 504 358 512 354 526 c 1
 344 544 352 566 371 573 c 0
516 524 m 1
 490 530 477 502 479 480 c 0
 483 451 469 423 458 397 c 1
 427 332 409 262 373 199 c 1
 356 173 339 151 324 119 c 1
 323 98 345 87 363 93 c 1
 380 95 382 113 387 126 c 1
 414 173 445 216 472 262 c 1
 503 312 533 362 562 413 c 1
 574 429 581 449 574 468 c 1
 566 493 547 519 520 524 c 1
 516 524 l 1
 516 524 l 1
 516 524 l 1
331 335 m 0
 300 322 279 286 285 252 c 1
 294 232 322 229 339 240 c 1
 371 253 407 258 441 267 c 0
 494 279 547 290 596 313 c 1
 619 320 644 323 668 325 c 1
 682 310 657 289 646 274 c 0
 623 242 611 213 588 180 c 1
 574 162 540 136 561 113 c 1
 581 94 608 112 623 128 c 1
 652 148 679 171 699 200 c 1
 717 224 734 250 759 268 c 1
 781 282 789 310 773 331 c 1
 754 352 738 372 711 392 c 1
 686 396 698 356 673 354 c 0
 623 347 570 344 519 338 c 1
 479 335 439 334 399 334 c 4
 388 334 378 334 367 334 c 1
 355 335 343 339 331 335 c 0
78 76 m 1
 100 84 124 75 147 82 c 1
 218 98 290 102 362 102 c 1
 484 101 602 136 722 150 c 1
 758 156 795 152 831 148 c 0
 865 144 887 175 918 181 c 1
 955 173 971 134 988 104 c 0
 1004 78 990 34 955 38 c 1
 918 34 884 49 850 63 c 1
 762 82 670 78 582 67 c 1
 497 53 411 40 327 20 c 1
 283 11 246 -11 209 -35 c 1
 166 -57 103 -61 72 -18 c 1
 64 10 48 57 78 76 c 1
EndSplineSet
EndChar

StartChar: uni4EBB
Encoding: 20155 20155 4
Width: 1024
VWidth: 0
Flags: HW
LayerCount: 2
Fore
SplineSet
281 619 m 0
 304 634 324 638 350 632 c 0
 362 630 380 602 382 591 c 0
 388 560 379 539 359 515 c 1
 262 441 155 368 38 332 c 1
 119 427 177 544 281 619 c 0
234 409 m 1
 234 409 l 2
 245 411 254 404 263 398 c 0
 277 389 296 380 294 360 c 0
 287 334 277 308 274 281 c 0
 274 205 272 131 284 56 c 1
 284 23 286 -12 271 -42 c 0
 261 -59 229 -52 230 -31 c 1
 223 -9 205 16 206 43 c 0
 203 98 206 153 205 208 c 0
 202 253 221 295 222 340 c 0
 223 363 216 391 234 409 c 1
EndSplineSet
EndChar

StartChar: uni4EC1
Encoding: 20161 20161 5
Width: 1024
VWidth: 0
Flags: HW
LayerCount: 2
Fore
SplineSet
281 619 m 0
 304 634 324 638 350 632 c 0
 362 630 380 602 382 591 c 0
 388 560 379 539 359 515 c 1
 262 441 155 368 38 332 c 1
 119 427 177 544 281 619 c 0
234 409 m 1
 234 409 l 2
 245 411 254 404 263 398 c 0
 277 389 296 380 294 360 c 0
 287 334 277 308 274 281 c 0
 274 205 272 131 284 56 c 1
 284 23 286 -12 271 -42 c 0
 261 -59 229 -52 230 -31 c 1
 223 -9 205 16 206 43 c 0
 203 98 206 153 205 208 c 0
 202 253 221 295 222 340 c 0
 223 363 216 391 234 409 c 1
479 511 m 1
 479 511 l 2
 483 511 487 510 491 510 c 0
 550 508 594 515 652 530 c 0
 709 544 782 581 841 562 c 1
 857 545 879 533 893 513 c 0
 905 500 910 469 886 467 c 1
 832 475 769 480 715 469 c 0
 646 455 585 425 516 413 c 0
 465 407 451 436 455 485 c 1
 463 494 471 502 479 511 c 1
354 240 m 1
 354 240 l 1
 354 240 l 1
 358 240 l 1
 362 240 l 1
 439 231 517 242 593 256 c 0
 674 267 754 285 835 296 c 0
 870 298 909 311 942 292 c 0
 974 269 982 216 953 187 c 0
 931 169 904 187 881 194 c 1
 805 197 730 188 654 181 c 0
 563 170 470 117 379 144 c 0
 345 159 325 211 354 240 c 1
EndSplineSet
EndChar

StartChar: uni5A01
Encoding: 23041 23041 6
Width: 1024
VWidth: 0
Flags: HW
LayerCount: 2
Fore
SplineSet
228 533 m 1
 228 533 l 1
221 516 m 1
 225 521 230 525 235 529 c 0
 254 547 285 539 297 517 c 1
 320 437 315 350 305 269 c 1
 277 174 250 74 197 -10 c 0
 180 -34 152 -58 121 -47 c 1
 141 -19 159 12 177 41 c 0
 242 153 245 292 250 418 c 1
 244 451 248 491 221 516 c 1
291 502 m 1
 389 512 485 530 579 557 c 0
 596 559 613 568 623 583 c 0
 635 599 656 591 673 592 c 0
 697 596 715 575 723 555 c 1
 710 528 697 526 666 526 c 0
 538 510 415 461 288 449 c 1
 269 459 271 493 291 502 c 1
466 817 m 1
 480 815 493 809 506 805 c 0
 534 792 577 781 582 748 c 1
 559 717 563 680 567 641 c 0
 572 507 623 375 671 251 c 1
 705 185 734 115 782 57 c 1
 813 6 856 -35 896 -78 c 0
 925 -113 913 -61 913 -43 c 0
 911 -24 924 52 936 11 c 0
 949 -29 929 -94 970 -116 c 1
 1012 -119 1015 -188 979 -205 c 1
 934 -210 911 -169 881 -143 c 0
 829 -99 787 -45 744 7 c 1
 691 88 648 175 607 262 c 0
 581 309 566 359 553 411 c 0
 519 516 515 627 487 733 c 1
 493 767 424 789 466 817 c 1
367 368 m 1
 376 369 386 369 395 370 c 0
 437 386 479 402 519 424 c 1
 529 422 539 421 549 419 c 1
 523 370 474 346 427 319 c 1
 406 318 387 318 370 332 c 0
 356 344 353 356 367 368 c 1
440 327 m 1
 459 319 467 303 476 285 c 1
 459 197 416 122 364 50 c 1
 458 15 566 15 643 -57 c 1
 643 -70 648 -88 633 -93 c 0
 621 -101 607 -99 594 -99 c 1
 524 -52 450 -23 366 -11 c 0
 352 -7 332 -12 325 5 c 1
 313 21 321 45 338 54 c 1
 370 126 403 197 416 276 c 0
 416 296 415 323 440 327 c 1
249 109 m 0
 247 124 261 131 274 127 c 0
 357 120 437 167 519 171 c 1
 518 191 520 210 517 230 c 0
 510 246 529 260 544 256 c 1
 562 233 570 212 571 182 c 0
 566 86 506 -7 438 -73 c 0
 408 -95 372 -118 337 -129 c 0
 321 -130 305 -132 296 -116 c 1
 303 -110 309 -106 316 -100 c 0
 338 -88 362 -79 385 -68 c 1
 431 -25 477 27 498 87 c 0
 499 103 523 133 495 134 c 1
 439 119 383 100 327 84 c 0
 306 77 283 77 262 87 c 0
 250 90 249 99 249 109 c 0
651 766 m 0
 652 767 654 767 655 767 c 0
 717 746 764 741 772 678 c 0
 776 647 764 634 735 625 c 0
 689 617 689 686 645 718 c 1
 636 734 631 756 651 766 c 0
726 356 m 0
 731 356 736 355 741 355 c 0
 753 353 764 347 775 342 c 0
 785 332 803 324 802 308 c 1
 806 294 796 283 790 271 c 0
 775 228 765 183 752 139 c 0
 737 98 719 57 703 16 c 0
 691 -2 676 -19 663 -36 c 0
 659 -39 653 -34 648 -33 c 0
 642 -32 647 -24 646 -19 c 0
 648 -2 653 14 659 30 c 0
 674 70 684 112 695 153 c 0
 701 179 701 206 704 233 c 0
 708 254 706 275 705 296 c 0
 705 314 698 331 702 348 c 1
 710 351 718 353 726 356 c 0
EndSplineSet
EndChar

StartChar: uni5B50
Encoding: 23376 23376 7
Width: 1024
VWidth: 0
Flags: HW
LayerCount: 2
Fore
SplineSet
267 580 m 0
 273 610 294 632 320 647 c 0
 332 652 347 646 360 647 c 0
 454 674 546 717 644 722 c 1
 663 745 684 765 717 753 c 1
 738 728 746 685 726 657 c 1
 707 646 683 664 666 652 c 0
 637 637 623 606 595 590 c 0
 582 585 562 556 551 577 c 1
 566 606 615 659 606 687 c 1
 529 664 458 632 384 601 c 1
 371 590 353 582 348 566 c 0
 339 545 332 522 317 505 c 0
 280 470 257 552 267 580 c 0
502 583 m 1
 523 587 543 586 563 579 c 1
 597 527 628 474 636 412 c 0
 644 359 650 305 647 251 c 0
 644 166 626 82 598 1 c 0
 580 -57 543 -153 479 -169 c 0
 453 -175 412 -178 402 -145 c 1
 384 -116 400 -98 401 -74 c 0
 401 -58 400 -23 395 -7 c 1
 399 3 425 -49 442 -47 c 1
 488 -17 552 205 553 261 c 0
 552 342 557 430 522 505 c 0
 508 527 476 558 502 583 c 1
164 327 m 1
 164 327 l 1
 169 327 174 327 179 327 c 0
 210 319 244 319 277 331 c 0
 341 351 400 373 466 388 c 0
 553 404 639 417 726 433 c 1
 756 433 792 452 818 432 c 1
 842 425 860 387 834 371 c 0
 812 355 786 372 763 377 c 0
 725 377 687 379 649 375 c 0
 610 369 571 367 532 359 c 0
 461 338 392 310 321 289 c 0
 288 278 253 265 235 234 c 0
 217 208 184 208 156 210 c 1
 140 220 114 236 118 256 c 0
 122 286 143 308 164 327 c 1
EndSplineSet
EndChar

StartChar: uni5B80
Encoding: 23424 23424 8
Width: 1024
VWidth: 0
Flags: HW
LayerCount: 2
Fore
SplineSet
412 789 m 1
 430 802 449 810 471 814 c 1
 499 796 529 781 547 751 c 1
 569 724 538 677 546 644 c 1
 532 626 523 618 499 617 c 1
 476 646 469 681 469 718 c 1
 450 740 419 761 412 789 c 1
243 676 m 1
 248 674 254 671 259 669 c 0
 273 647 258 610 271 586 c 1
 272 543 268 502 251 461 c 0
 244 440 230 411 206 406 c 1
 166 426 149 465 154 509 c 1
 188 562 230 613 243 676 c 1
289 637 m 0
 292 639 296 640 299 642 c 0
 344 660 392 669 440 678 c 0
 501 691 563 693 625 701 c 0
 683 710 742 719 800 729 c 1
 833 729 860 702 873 674 c 0
 885 654 901 621 876 604 c 0
 858 595 834 588 816 599 c 1
 809 613 803 638 782 624 c 0
 755 612 728 599 704 583 c 0
 689 579 668 569 683 589 c 0
 695 606 713 619 724 636 c 0
 743 660 710 678 689 671 c 1
 637 672 586 666 535 655 c 0
 455 639 380 627 296 607 c 0
 273 604 266 632 289 637 c 0
EndSplineSet
EndChar

StartChar: uni5B98
Encoding: 23448 23448 9
Width: 1024
VWidth: 0
Flags: HW
LayerCount: 2
Fore
SplineSet
412 789 m 1
 430 802 449 810 471 814 c 1
 499 796 529 781 547 751 c 1
 569 724 538 677 546 644 c 1
 532 626 523 618 499 617 c 1
 476 646 469 681 469 718 c 1
 450 740 419 761 412 789 c 1
243 676 m 1
 248 674 254 671 259 669 c 0
 273 647 258 610 271 586 c 1
 272 543 268 502 251 461 c 0
 244 440 230 411 206 406 c 1
 166 426 149 465 154 509 c 1
 188 562 230 613 243 676 c 1
417 566 m 1
 437 555 461 549 469 525 c 0
 484 459 463 390 463 323 c 0
 466 176 474 30 472 -117 c 0
 473 -138 476 -194 447 -192 c 1
 430 -176 412 -159 395 -143 c 1
 393 10 410 246 405 411 c 1
 409 463 410 516 417 566 c 1
457 528 m 0
 457 528 l 1
 501 535 546 541 589 550 c 1
 613 563 637 562 663 558 c 1
 679 543 688 532 690 509 c 1
 677 484 661 461 642 440 c 0
 626 419 613 397 599 374 c 1
 581 376 566 378 553 391 c 1
 567 419 580 447 587 478 c 0
 593 499 596 512 573 497 c 1
 535 492 494 479 457 490 c 1
 454 502 456 515 457 528 c 0
450 354 m 1
 457 369 466 378 481 386 c 1
 540 394 601 403 661 396 c 1
 667 387 679 380 669 371 c 0
 661 364 658 353 653 344 c 1
 621 344 589 337 556 339 c 0
 532 340 511 325 487 325 c 1
 473 333 456 339 450 354 c 1
476 236 m 0
 477 236 477 237 478 237 c 0
 539 262 602 274 668 276 c 0
 699 278 700 299 723 307 c 1
 755 284 782 255 798 219 c 1
 769 158 723 110 685 54 c 1
 662 53 638 60 632 85 c 1
 647 136 663 187 696 229 c 1
 692 232 687 236 683 239 c 0
 632 220 580 203 529 184 c 0
 504 175 479 216 476 236 c 0
459 62 m 0
 460 62 459 63 460 63 c 0
 484 73 508 81 533 88 c 1
 585 92 642 107 693 92 c 0
 722 81 757 62 750 25 c 1
 708 9 641 46 594 34 c 1
 558 31 523 26 487 24 c 1
 465 34 449 36 459 62 c 0
289 637 m 0
 292 639 296 640 299 642 c 0
 344 660 392 669 440 678 c 0
 501 691 563 693 625 701 c 0
 683 710 742 719 800 729 c 1
 833 729 860 702 873 674 c 0
 885 654 901 621 876 604 c 0
 858 595 834 588 816 599 c 1
 809 613 803 638 782 624 c 0
 755 612 728 599 704 583 c 0
 689 579 668 569 683 589 c 0
 695 606 713 619 724 636 c 0
 743 660 710 678 689 671 c 1
 637 672 586 666 535 655 c 0
 455 639 380 627 296 607 c 0
 273 604 266 632 289 637 c 0
EndSplineSet
EndChar

StartChar: uni5BB3
Encoding: 23475 23475 10
Width: 1024
VWidth: 0
Flags: HW
LayerCount: 2
Fore
SplineSet
408 732 m 0
 408 732 l 1
 417 743 425 754 434 765 c 1
 455 766 476 769 494 756 c 0
 537 724 550 675 546 624 c 0
 541 615 535 602 527 597 c 0
 513 597 496 596 492 614 c 0
 482 646 469 678 447 703 c 0
 442 712 432 713 422 711 c 0
 411 711 409 724 408 732 c 0
271 641 m 0
 286 639 295 636 299 620 c 0
 315 592 297 549 297 519 c 0
 292 488 281 459 268 431 c 0
 259 416 237 390 219 406 c 0
 198 431 179 460 192 492 c 1
 205 499 220 507 233 514 c 1
 254 545 263 572 261 611 c 0
 262 621 257 639 271 641 c 0
300 582 m 1
 340 577 380 571 421 576 c 0
 497 591 573 609 649 625 c 0
 675 634 701 631 728 628 c 1
 734 637 737 651 747 655 c 0
 783 663 819 646 835 613 c 0
 850 583 862 542 827 521 c 1
 806 525 789 545 764 544 c 0
 748 542 690 496 653 471 c 0
 641 461 648 506 655 512 c 0
 673 538 693 562 710 588 c 1
 694 599 672 600 654 596 c 0
 576 572 498 549 418 535 c 0
 380 529 341 530 302 533 c 0
 278 534 282 574 300 582 c 1
386 506 m 0
 435 511 485 515 530 537 c 0
 538 540 543 549 552 551 c 0
 565 557 580 547 583 533 c 0
 585 525 582 512 572 512 c 0
 562 513 552 514 542 514 c 0
 497 509 453 501 411 483 c 0
 402 480 395 473 387 468 c 0
 378 461 365 466 361 476 c 0
 359 485 361 495 364 503 c 0
 368 512 379 505 386 506 c 0
426 505 m 1
 453 514 480 522 509 521 c 1
 538 499 563 480 570 441 c 1
 559 388 548 335 545 281 c 0
 542 268 544 252 535 241 c 0
 523 230 506 232 491 232 c 1
 478 251 470 271 463 293 c 1
 463 323 463 352 463 382 c 0
 464 427 444 465 426 505 c 1
361 388 m 0
 370 400 383 417 398 406 c 0
 406 397 416 385 430 391 c 0
 473 398 512 417 554 427 c 0
 579 432 644 444 636 400 c 1
 627 378 597 355 573 361 c 0
 564 366 557 373 546 372 c 0
 502 369 463 349 424 332 c 0
 407 329 387 332 375 345 c 0
 365 356 354 372 361 388 c 0
190 183 m 0
 190 183 l 2
 218 186 247 189 275 197 c 0
 361 220 448 237 535 254 c 0
 602 271 676 257 740 289 c 0
 764 305 777 337 812 334 c 0
 840 333 864 313 881 293 c 0
 904 272 884 236 858 230 c 1
 833 234 808 242 782 242 c 0
 709 245 637 232 566 217 c 0
 510 202 457 178 399 170 c 0
 349 160 297 156 251 132 c 1
 234 116 212 107 189 111 c 0
 154 111 164 172 190 183 c 0
355 119 m 1
 355 119 l 1
 357 119 l 2
 370 124 370 109 367 100 c 0
 371 78 387 62 397 42 c 0
 417 -8 431 -61 443 -113 c 0
 445 -124 436 -133 426 -137 c 0
 418 -141 404 -145 400 -134 c 0
 381 -87 367 -38 348 9 c 0
 341 28 332 46 326 65 c 0
 319 87 335 111 355 119 c 1
461 88 m 0
 475 95 490 87 505 86 c 0
 545 86 587 89 625 104 c 0
 639 109 633 125 632 136 c 0
 631 152 646 170 663 162 c 0
 686 147 703 122 713 97 c 0
 723 69 716 39 711 11 c 0
 695 -44 679 -104 638 -146 c 0
 625 -155 606 -149 592 -145 c 0
 577 -135 575 -115 579 -99 c 0
 590 -66 648 57 620 84 c 1
 597 82 578 66 558 55 c 0
 528 38 501 23 467 44 c 0
 452 52 446 78 461 88 c 0
409 -78 m 0
 412 -74 417 -72 421 -71 c 0
 438 -68 453 -58 469 -53 c 0
 497 -43 526 -41 556 -42 c 0
 572 -43 591 -45 603 -57 c 0
 611 -65 616 -80 608 -89 c 0
 601 -97 591 -102 581 -102 c 0
 557 -100 533 -100 510 -105 c 0
 489 -108 469 -119 448 -122 c 0
 439 -124 428 -122 421 -116 c 0
 409 -108 401 -91 409 -78 c 0
EndSplineSet
EndChar

StartChar: uni5C11
Encoding: 23569 23569 11
Width: 1024
VWidth: 0
Flags: HW
LayerCount: 2
Fore
SplineSet
454 675 m 1
 492 724 515 678 576 643 c 1
 594 585 562 505 565 443 c 1
 557 391 564 338 542 288 c 1
 536 287 528 287 522 286 c 0
 478 327 454 369 450 429 c 0
 449 505 469 600 454 675 c 1
641 458 m 1
 695 463 753 423 741 363 c 1
 626 216 494 104 346 -2 c 0
 309 -22 174 -111 141 -88 c 1
 155 -78 169 -69 183 -59 c 0
 379 120 509 226 641 458 c 1
338 506 m 1
 307 455 303 455 323 418 c 0
 338 387 327 359 284 357 c 1
 232 372 176 444 226 489 c 1
 260 475 300 481 338 506 c 1
770 480 m 1
 741 518 758 535 705 542 c 1
 731 562 720 592 735 608 c 1
 763 617 790 608 813 583 c 1
 831 549 845 529 849 493 c 1
 833 403 783 419 770 480 c 1
EndSplineSet
EndChar

StartChar: uni5DDE
Encoding: 24030 24030 12
Width: 1024
VWidth: 0
Flags: HW
LayerCount: 2
Fore
SplineSet
171 489 m 1
 189 472 186 449 184 427 c 1
 166 372 229 344 219 292 c 1
 226 251 154 230 129 262 c 1
 110 294 105 333 108 369 c 1
 127 410 142 454 171 489 c 1
223 612 m 1
 245 642 261 609 279 594 c 0
 314 567 321 520 326 479 c 1
 332 338 324 187 267 57 c 1
 237 15 195 -17 164 -59 c 0
 129 -105 156 -24 156 -2 c 1
 225 159 255 306 237 485 c 1
 223 527 184 570 223 612 c 1
392 499 m 1
 398 496 405 493 411 490 c 1
 455 480 477 431 463 390 c 1
 467 338 400 352 387 388 c 1
 356 416 362 471 392 499 c 1
458 609 m 0
 471 635 510 659 537 648 c 0
 570 635 567 583 574 549 c 1
 592 369 592 185 582 4 c 1
 578 -25 592 -73 564 -83 c 0
 530 -95 491 -51 478 -18 c 0
 464 19 497 59 500 99 c 1
 507 224 498 350 488 474 c 1
 482 520 438 567 458 609 c 0
748 605 m 1
 746 595 749 584 746 574 c 1
 720 536 714 491 748 456 c 1
 768 424 751 358 706 365 c 1
 668 376 625 406 613 446 c 1
 590 488 620 548 671 536 c 1
 709 538 723 582 748 605 c 1
756 681 m 0
 758 693 760 706 762 718 c 1
 796 724 832 718 863 704 c 1
 902 690 910 643 906 607 c 1
 916 442 917 276 916 111 c 1
 914 71 916 31 921 -9 c 1
 925 -83 901 -99 831 -96 c 1
 794 -96 794 -55 772 -36 c 1
 742 -13 715 17 707 55 c 1
 723 69 747 26 766 18 c 1
 806 -19 817 37 818 69 c 0
 828 242 816 415 802 588 c 1
 806 628 748 641 756 681 c 0
EndSplineSet
EndChar

StartChar: uni5E7F
Encoding: 24191 24191 13
Width: 1024
VWidth: 0
Flags: HW
LayerCount: 2
Fore
SplineSet
404 763 m 0
 410 767 417 771 423 775 c 0
 435 783 450 779 464 780 c 1
 493 772 516 752 540 736 c 1
 539 728 539 720 538 712 c 0
 526 693 509 676 487 671 c 1
 468 678 452 691 442 709 c 0
 431 730 401 728 390 748 c 1
 395 753 399 758 404 763 c 0
267 644 m 0
 280 651 294 647 308 647 c 0
 355 658 403 664 450 671 c 0
 497 677 543 688 589 700 c 0
 604 705 622 704 635 715 c 1
 641 740 671 725 688 720 c 1
 708 721 719 705 720 686 c 0
 724 666 701 658 685 659 c 1
 664 653 650 672 630 671 c 0
 597 666 565 653 533 645 c 0
 474 633 416 622 358 607 c 0
 338 604 322 592 303 586 c 0
 278 578 254 604 253 628 c 1
 258 633 262 639 267 644 c 0
255 564 m 1
 255 564 l 1
 259 563 l 2
 283 556 308 538 308 510 c 0
 296 447 287 383 275 320 c 1
 259 261 241 202 223 144 c 0
 207 98 192 51 174 6 c 1
 153 -32 134 -71 106 -104 c 1
 98 -126 73 -104 91 -90 c 1
 121 -16 149 58 170 135 c 0
 188 186 197 240 207 293 c 0
 222 365 235 438 244 511 c 0
 248 529 227 559 255 564 c 1
EndSplineSet
EndChar

StartChar: uni5EA6
Encoding: 24230 24230 14
Width: 1024
VWidth: 0
Flags: HW
LayerCount: 2
Fore
SplineSet
404 763 m 0
 410 767 417 771 423 775 c 0
 435 783 450 779 464 780 c 1
 493 772 516 752 540 736 c 1
 539 728 539 720 538 712 c 0
 526 693 509 676 487 671 c 1
 468 678 452 691 442 709 c 0
 431 730 401 728 390 748 c 1
 395 753 399 758 404 763 c 0
267 644 m 0
 280 651 294 647 308 647 c 0
 355 658 403 664 450 671 c 0
 497 677 543 688 589 700 c 0
 604 705 622 704 635 715 c 1
 641 740 671 725 688 720 c 1
 708 721 719 705 720 686 c 0
 724 666 701 658 685 659 c 1
 664 653 650 672 630 671 c 0
 597 666 565 653 533 645 c 0
 474 633 416 622 358 607 c 0
 338 604 322 592 303 586 c 0
 278 578 254 604 253 628 c 1
 258 633 262 639 267 644 c 0
255 564 m 1
 255 564 l 1
 259 563 l 2
 283 556 308 538 308 510 c 0
 296 447 287 383 275 320 c 1
 259 261 241 202 223 144 c 0
 207 98 192 51 174 6 c 1
 153 -32 134 -71 106 -104 c 1
 98 -126 73 -104 91 -90 c 1
 121 -16 149 58 170 135 c 0
 188 186 197 240 207 293 c 0
 222 365 235 438 244 511 c 0
 248 529 227 559 255 564 c 1
333 463 m 1
 352 465 371 469 390 471 c 0
 501 499 606 546 711 591 c 1
 737 591 768 571 785 550 c 0
 792 533 793 507 769 510 c 1
 747 503 726 510 705 516 c 0
 664 530 624 509 584 500 c 1
 522 476 459 454 395 434 c 1
 371 412 311 424 333 463 c 1
411 569 m 0
 418 570 426 574 433 571 c 0
 446 564 472 569 469 549 c 1
 472 534 466 521 462 507 c 1
 465 454 465 401 470 348 c 1
 458 329 432 340 423 358 c 1
 420 378 418 397 417 417 c 0
 415 442 417 467 411 491 c 0
 406 512 392 533 395 555 c 0
 394 565 405 565 411 569 c 0
585 630 m 0
 598 639 615 637 630 637 c 1
 639 630 647 623 656 616 c 1
 662 602 657 586 656 571 c 0
 644 520 634 468 626 416 c 0
 621 403 625 390 623 377 c 0
 622 365 607 359 596 361 c 0
 582 366 577 383 573 396 c 0
 573 411 573 427 573 442 c 0
 572 498 575 555 568 611 c 0
 565 622 579 624 585 630 c 0
455 370 m 1
 468 374 482 378 495 382 c 0
 525 390 555 396 586 404 c 0
 592 401 600 399 606 396 c 1
 603 387 598 379 595 370 c 1
 556 364 518 357 479 350 c 0
 471 347 463 350 455 351 c 1
 455 357 455 364 455 370 c 1
363 300 m 1
 398 269 437 241 471 209 c 0
 508 170 549 134 592 100 c 0
 619 74 650 54 683 37 c 0
 718 14 756 -3 795 -17 c 0
 848 -42 906 -51 961 -71 c 1
 978 -83 1020 -79 1020 -104 c 1
 997 -113 975 -122 950 -125 c 0
 917 -130 882 -127 849 -134 c 1
 823 -133 808 -156 785 -165 c 1
 756 -189 747 -145 728 -131 c 1
 713 -110 688 -101 666 -90 c 0
 635 -70 610 -41 582 -17 c 0
 502 67 435 164 361 253 c 1
 343 266 328 301 363 300 c 1
378 278 m 0
 382 280 385 280 389 282 c 0
 421 299 458 295 492 305 c 1
 509 315 543 313 543 339 c 1
 549 362 574 368 595 371 c 0
 618 377 644 372 660 353 c 0
 671 336 674 300 649 294 c 0
 628 284 617 262 619 240 c 0
 620 215 601 195 593 172 c 0
 582 135 561 103 542 69 c 0
 522 22 479 -9 443 -43 c 0
 418 -62 392 -82 364 -96 c 1
 336 -104 310 -119 281 -121 c 1
 266 -117 236 -131 236 -107 c 1
 266 -93 295 -78 324 -63 c 0
 357 -49 384 -24 413 -3 c 0
 432 13 455 24 467 46 c 0
 491 80 517 113 539 148 c 0
 551 175 563 201 573 229 c 0
 584 253 573 279 545 279 c 1
 523 272 504 258 483 247 c 0
 464 236 445 223 422 228 c 0
 396 229 377 253 378 278 c 0
EndSplineSet
EndChar

StartChar: uni5F73
Encoding: 24435 24435 15
Width: 1024
VWidth: 0
Flags: HW
LayerCount: 2
Fore
SplineSet
291 753 m 1
 345 749 366 717 374 655 c 1
 331 621 212 573 144 569 c 1
 144 575 144 580 144 586 c 0
 182 651 247 694 291 753 c 1
334 532 m 1
 379 524 418 471 413 425 c 1
 401 414 385 414 370 415 c 1
 298 363 163 234 82 221 c 1
 84 227 85 232 87 238 c 0
 155 312 222 387 290 461 c 0
 310 481 325 505 334 532 c 1
260 350 m 1
 278 345 296 340 303 320 c 0
 316 260 304 200 293 140 c 0
 284 89 282 36 292 -15 c 1
 275 -44 241 -79 217 -39 c 0
 197 -12 195 25 218 51 c 1
 232 134 235 218 244 301 c 0
 249 317 239 343 260 350 c 1
EndSplineSet
EndChar

StartChar: uni6B66
Encoding: 27494 27494 16
Width: 1024
VWidth: 0
Flags: HW
LayerCount: 2
Fore
SplineSet
104 580 m 1
 124 608 148 645 186 635 c 1
 219 588 265 558 314 529 c 0
 312 525 309 521 307 517 c 0
 252 519 195 519 141 528 c 1
 116 539 104 553 104 580 c 1
625 770 m 1
 658 844 771 676 816 643 c 1
 830 622 844 573 823 554 c 1
 790 539 758 556 741 586 c 1
 713 622 674 650 648 688 c 0
 631 711 618 741 625 770 c 1
151 320 m 1
 176 325 200 330 225 336 c 0
 382 378 534 425 687 473 c 0
 708 484 726 503 752 498 c 1
 781 499 801 473 811 449 c 1
 814 418 774 427 754 425 c 0
 612 399 471 363 335 312 c 1
 302 289 270 262 235 243 c 1
 212 239 188 249 172 266 c 0
 156 280 144 298 151 320 c 1
452 742 m 0
 464 751 477 756 492 755 c 0
 533 761 544 722 532 691 c 1
 534 596 550 502 563 408 c 0
 594 234 701 81 817 -42 c 1
 850 -89 866 -19 877 8 c 1
 892 24 891 89 920 71 c 1
 920 19 922 -32 924 -84 c 0
 927 -114 982 -123 958 -160 c 0
 936 -191 891 -185 861 -169 c 0
 662 -63 556 152 500 362 c 0
 473 451 466 544 450 636 c 0
 448 671 410 717 452 742 c 0
365 299 m 1
 389 308 408 307 431 297 c 0
 456 287 459 266 460 241 c 0
 457 173 449 106 448 38 c 1
 430 27 411 11 389 17 c 0
 370 23 367 37 367 57 c 0
 369 138 372 219 365 299 c 1
445 218 m 1
 470 229 512 246 536 228 c 1
 540 213 534 198 522 188 c 0
 499 176 462 166 438 176 c 1
 431 189 434 207 445 218 c 1
116 -113 m 1
 115 -98 112 -84 125 -73 c 0
 233 -17 345 31 464 54 c 1
 506 53 552 48 578 11 c 1
 592 1 593 -29 575 -34 c 0
 560 -39 545 -34 531 -27 c 0
 499 -10 462 -10 427 -12 c 0
 336 -16 265 -70 187 -111 c 0
 166 -126 138 -123 116 -113 c 1
233 165 m 1
 262 184 285 184 306 157 c 1
 309 98 288 44 271 -12 c 0
 267 -27 259 -44 242 -45 c 0
 231 -48 219 -46 208 -44 c 1
 204 -14 213 5 231 30 c 1
 237 76 242 119 233 165 c 1
EndSplineSet
EndChar

StartChar: uni6C5F
Encoding: 27743 27743 17
Width: 1024
VWidth: 0
Flags: HW
LayerCount: 2
Fore
SplineSet
309 694 m 1
 363 688 417 683 428 625 c 0
 425 615 417 595 414 585 c 1
 389 573 355 601 338 564 c 1
 325 591 343 584 323 608 c 1
 305 613 269 636 255 649 c 1
 260 678 277 679 309 694 c 1
99 440 m 1
 131 489 208 506 256 475 c 1
 287 448 307 410 291 368 c 1
 256 327 193 370 155 386 c 0
 133 398 93 409 99 440 c 1
165 117 m 1
 165 117 l 1
 174 101 177 82 198 88 c 1
 224 125 249 162 275 199 c 0
 279 204 284 215 290 206 c 1
 288 167 274 135 254 101 c 0
 244 86 249 68 248 51 c 1
 259 37 271 24 275 7 c 0
 283 -13 278 -41 254 -46 c 0
 228 -54 196 -59 174 -39 c 0
 136 -10 152 39 151 81 c 0
 153 93 152 110 165 117 c 1
490 483 m 0
 490 483 l 1
 507 486 524 482 541 481 c 1
 613 502 684 523 756 544 c 0
 774 547 788 559 804 567 c 0
 825 571 845 563 858 545 c 0
 879 524 892 488 855 478 c 0
 837 474 818 479 799 478 c 0
 716 461 633 442 550 425 c 1
 534 413 514 402 493 415 c 1
 462 425 473 464 490 483 c 0
659 440 m 0
 706 429 757 422 769 367 c 1
 764 312 744 264 721 214 c 0
 716 200 707 186 710 171 c 1
 695 166 681 159 665 159 c 1
 647 174 635 185 633 210 c 0
 638 263 643 316 648 369 c 0
 649 384 641 397 638 411 c 0
 631 425 646 439 659 440 c 0
398 133 m 1
 443 170 677 177 747 197 c 1
 803 207 868 203 922 190 c 1
 946 178 945 144 938 122 c 1
 915 87 870 104 840 121 c 1
 803 134 765 131 727 131 c 1
 626 115 526 83 430 55 c 1
 407 74 394 103 398 133 c 1
EndSplineSet
EndChar

StartChar: uni6C35
Encoding: 27701 27701 18
Width: 1024
VWidth: 0
Flags: HW
LayerCount: 2
Fore
SplineSet
309 694 m 1
 363 688 417 683 428 625 c 0
 425 615 417 595 414 585 c 1
 389 573 355 601 338 564 c 1
 325 591 343 584 323 608 c 1
 305 613 269 636 255 649 c 1
 260 678 277 679 309 694 c 1
99 440 m 1
 131 489 208 506 256 475 c 1
 287 448 307 410 291 368 c 1
 256 327 193 370 155 386 c 0
 133 398 93 409 99 440 c 1
165 117 m 1
 165 117 l 1
 174 101 177 82 198 88 c 1
 224 125 249 162 275 199 c 0
 279 204 284 215 290 206 c 1
 288 167 274 135 254 101 c 0
 244 86 249 68 248 51 c 1
 259 37 271 24 275 7 c 0
 283 -13 278 -41 254 -46 c 0
 228 -54 196 -59 174 -39 c 0
 136 -10 152 39 151 81 c 0
 153 93 152 110 165 117 c 1
EndSplineSet
EndChar

StartChar: uni6C88
Encoding: 27784 27784 19
Width: 1024
VWidth: 0
Flags: HW
LayerCount: 2
Fore
SplineSet
202 684 m 1
 227 709 274 718 307 707 c 0
 360 683 401 648 401 586 c 1
 394 549 349 527 317 550 c 1
 282 584 269 638 219 654 c 0
 207 659 198 671 202 684 c 1
72 475 m 1
 104 492 142 491 177 483 c 0
 213 473 243 453 252 416 c 0
 262 375 218 348 182 364 c 0
 145 383 103 398 74 429 c 0
 64 442 68 460 72 475 c 1
225 223 m 1
 228 221 233 218 236 216 c 0
 227 157 231 98 240 39 c 0
 240 14 238 -13 221 -33 c 1
 184 -55 138 -27 116 4 c 1
 129 29 155 33 163 62 c 0
 181 116 193 174 225 223 c 1
392 478 m 1
 416 474 427 471 438 447 c 1
 441 415 440 383 436 351 c 0
 436 326 407 305 383 316 c 0
 347 328 338 376 354 407 c 0
 371 429 372 459 392 478 c 1
408 462 m 1
 518 481 632 499 736 541 c 1
 776 518 805 493 820 446 c 1
 819 388 730 382 688 388 c 1
 669 385 650 364 631 375 c 1
 628 390 652 412 661 429 c 1
 682 445 678 470 655 480 c 1
 591 477 530 454 468 438 c 0
 448 435 422 415 405 434 c 0
 395 444 398 453 408 462 c 1
571 699 m 1
 596 687 619 673 636 650 c 0
 656 627 662 601 653 572 c 1
 640 557 628 542 615 527 c 0
 590 490 600 420 572 378 c 1
 545 305 521 228 475 164 c 1
 443 131 363 33 314 47 c 1
 386 155 462 262 503 386 c 0
 517 426 522 468 532 509 c 1
 534 552 532 596 531 639 c 1
 523 668 545 691 571 699 c 1
606 325 m 1
 615 326 625 329 633 326 c 0
 634 325 l 2
 663 300 676 270 651 237 c 0
 608 185 563 119 600 51 c 1
 670 -1 772 -31 853 16 c 1
 861 46 868 76 876 106 c 0
 879 116 879 132 894 129 c 1
 893 97 900 65 901 33 c 1
 913 27 925 22 934 9 c 1
 924 -50 878 -83 819 -84 c 0
 729 -79 545 -78 531 35 c 1
 525 143 564 226 606 325 c 1
EndSplineSet
EndChar

StartChar: uni6CC9
Encoding: 27849 27849 20
Width: 1024
VWidth: 0
Flags: HW
LayerCount: 2
Fore
SplineSet
405 797 m 1
 428 822 456 799 478 784 c 1
 492 757 521 730 499 703 c 1
 449 673 401 636 344 621 c 0
 326 618 296 616 320 635 c 1
 353 688 386 739 405 797 c 1
377 682 m 0
 397 689 418 688 439 692 c 0
 512 700 584 713 657 721 c 0
 672 727 697 716 706 731 c 0
 711 735 712 752 719 745 c 0
 742 726 766 706 787 684 c 0
 799 668 789 641 773 630 c 1
 737 560 702 489 665 420 c 0
 659 400 637 392 619 400 c 0
 596 413 599 441 603 463 c 0
 624 522 646 581 668 640 c 0
 669 655 699 686 671 687 c 1
 599 666 528 646 453 646 c 0
 428 647 403 647 379 652 c 0
 358 651 362 675 377 682 c 0
248 668 m 1
 272 648 300 632 327 616 c 1
 336 587 353 538 362 509 c 0
 368 475 373 439 377 405 c 1
 348 398 326 408 311 437 c 1
 306 459 302 481 297 503 c 0
 276 551 250 596 236 647 c 0
 236 656 237 666 248 668 c 1
332 523 m 0
 330 534 331 543 343 545 c 0
 407 562 471 577 535 590 c 1
 544 583 552 576 556 565 c 1
 550 560 545 555 539 550 c 0
 480 539 421 527 362 515 c 0
 352 513 336 511 332 523 c 0
300 400 m 1
 396 431 490 438 583 463 c 0
 611 470 640 456 636 423 c 1
 625 419 613 415 602 411 c 0
 519 396 373 376 296 361 c 1
 284 372 292 389 300 400 c 1
459 407 m 1
 487 407 499 403 518 380 c 1
 535 334 532 285 536 236 c 0
 538 164 538 92 540 20 c 1
 535 -30 528 -78 522 -128 c 0
 522 -145 514 -160 508 -176 c 1
 486 -193 449 -202 445 -166 c 1
 448 -136 455 -110 438 -82 c 0
 426 -68 412 -55 399 -42 c 0
 390 -36 391 -24 389 -15 c 1
 406 -20 421 -28 437 -35 c 0
 445 -42 451 -37 457 -31 c 1
 455 82 449 194 445 307 c 0
 446 327 440 347 436 366 c 0
 431 386 442 397 459 407 c 1
135 211 m 1
 196 229 259 243 321 258 c 1
 333 254 334 250 333 237 c 1
 273 202 219 157 154 129 c 1
 135 130 125 130 116 148 c 1
 116 174 114 193 135 211 c 1
370 327 m 1
 380 317 389 308 399 298 c 0
 409 284 396 264 391 249 c 0
 379 215 360 185 342 155 c 0
 323 119 296 89 271 57 c 0
 242 17 207 -19 173 -55 c 0
 158 -67 140 -76 124 -86 c 0
 109 -93 96 -109 78 -100 c 1
 124 -42 174 12 221 68 c 0
 250 109 276 152 304 194 c 1
 321 238 332 283 349 327 c 1
 356 327 363 327 370 327 c 1
502 324 m 1
 516 335 527 337 544 331 c 1
 600 264 660 201 730 149 c 1
 790 112 851 81 919 63 c 0
 940 57 960 46 980 36 c 0
 991 34 979 24 978 18 c 1
 921 -1 863 -17 804 -31 c 0
 796 -34 789 -35 783 -29 c 0
 720 11 685 85 633 137 c 0
 592 184 550 229 509 275 c 1
 506 291 500 307 502 324 c 1
766 454 m 1
 796 466 826 464 853 445 c 1
 853 405 853 399 818 375 c 0
 750 331 681 289 615 242 c 1
 607 260 607 267 618 285 c 0
 667 341 717 398 766 454 c 1
EndSplineSet
EndChar

StartChar: uni7ADD
Encoding: 31453 31453 21
Width: 1024
VWidth: 0
Flags: HW
LayerCount: 2
Fore
SplineSet
286 649 m 0
 289 650 293 649 296 650 c 0
 315 655 335 653 354 652 c 1
 368 646 383 639 397 633 c 0
 404 626 410 619 416 612 c 0
 418 609 422 606 421 602 c 0
 416 581 416 560 416 539 c 1
 410 535 403 531 397 527 c 0
 392 528 388 530 383 531 c 0
 366 537 348 536 331 536 c 1
 327 546 324 556 320 566 c 0
 319 570 316 574 311 575 c 0
 295 582 282 591 269 603 c 0
 269 609 269 617 269 623 c 0
 275 632 280 640 286 649 c 0
648 689 m 0
 654 692 661 694 667 697 c 0
 682 694 697 690 712 687 c 1
 725 674 737 660 750 647 c 1
 751 637 752 628 753 618 c 0
 750 608 747 598 744 588 c 0
 742 576 735 565 728 555 c 1
 717 551 706 547 695 543 c 1
 682 546 668 550 655 553 c 1
 648 564 643 576 638 588 c 0
 634 597 631 607 631 617 c 0
 630 628 630 639 633 650 c 0
 635 664 642 676 648 689 c 0
203 414 m 1
 213 420 224 427 234 433 c 1
 263 436 292 438 321 441 c 0
 356 448 390 461 425 470 c 1
 436 480 448 489 459 499 c 0
 466 508 475 511 486 505 c 0
 501 497 501 475 515 463 c 1
 510 446 496 434 483 424 c 0
 460 409 433 400 407 391 c 0
 374 379 340 375 306 368 c 0
 281 363 255 357 230 351 c 0
 217 347 202 351 196 365 c 0
 186 380 197 399 203 414 c 1
583 461 m 0
 588 463 595 464 600 466 c 0
 647 471 693 474 740 479 c 0
 775 483 809 485 844 484 c 0
 855 488 860 467 851 462 c 1
 838 462 824 459 812 454 c 0
 777 438 742 423 705 412 c 0
 688 405 670 404 652 404 c 0
 637 402 622 402 608 405 c 0
 598 409 582 405 578 418 c 1
 567 430 569 452 583 461 c 0
430 385 m 1
 444 383 458 382 472 380 c 0
 482 379 489 369 498 364 c 0
 509 357 512 342 519 332 c 1
 518 318 518 305 517 291 c 0
 514 277 508 264 503 250 c 1
 492 241 476 257 462 252 c 1
 456 238 449 224 443 210 c 0
 408 171 371 134 338 94 c 0
 336 92 335 102 334 105 c 0
 331 114 336 122 338 131 c 0
 350 165 356 201 365 235 c 0
 379 280 393 324 406 369 c 1
 414 374 422 380 430 385 c 1
217 272 m 0
 224 264 231 256 235 246 c 0
 237 239 241 227 250 230 c 0
 261 242 269 257 277 272 c 0
 280 277 282 283 286 288 c 0
 292 291 298 287 301 282 c 0
 310 264 312 244 317 225 c 1
 313 215 309 204 305 194 c 0
 303 185 297 177 289 172 c 0
 279 160 264 156 250 152 c 0
 246 154 242 155 238 157 c 0
 229 158 225 167 222 174 c 0
 221 183 221 193 221 202 c 0
 222 214 215 223 210 233 c 0
 202 244 204 258 204 270 c 0
 208 271 213 271 217 272 c 0
571 329 m 1
 585 326 599 321 613 318 c 1
 624 324 635 329 646 335 c 0
 653 339 664 338 666 329 c 1
 653 310 648 286 645 263 c 0
 645 242 635 224 625 206 c 1
 616 204 606 201 597 199 c 1
 587 204 578 207 568 212 c 1
 561 225 555 238 548 251 c 0
 545 271 546 290 545 310 c 1
 554 316 562 323 571 329 c 1
811 409 m 0
 821 410 832 411 842 412 c 1
 852 406 863 399 873 393 c 1
 881 379 889 366 897 352 c 0
 905 341 908 328 906 315 c 0
 903 299 886 295 875 286 c 0
 853 272 830 257 810 240 c 0
 778 211 743 185 706 163 c 0
 693 157 685 144 671 140 c 0
 655 137 664 150 669 157 c 0
 708 215 739 280 769 343 c 1
 772 363 776 384 781 404 c 1
 791 406 801 407 811 409 c 0
166 35 m 0
 188 41 210 47 232 53 c 0
 290 70 348 86 404 106 c 0
 418 113 433 108 448 108 c 1
 450 93 459 75 444 63 c 0
 409 31 365 11 326 -16 c 0
 307 -31 284 -41 268 -60 c 0
 260 -70 249 -83 234 -78 c 0
 218 -67 201 -55 185 -44 c 1
 172 -23 163 0 149 21 c 1
 155 26 160 30 166 35 c 0
533 72 m 0
 591 83 648 94 705 107 c 0
 735 116 767 116 798 116 c 0
 829 119 859 111 889 106 c 1
 896 99 902 91 909 84 c 0
 917 72 925 56 922 42 c 0
 916 26 900 18 886 10 c 1
 860 9 834 9 808 9 c 0
 734 5 661 5 587 7 c 0
 563 8 540 7 517 14 c 0
 501 20 499 41 500 56 c 1
 511 61 522 67 533 72 c 0
EndSplineSet
EndChar

StartChar: uni7BC0
Encoding: 31680 31680 22
Width: 1024
VWidth: 0
Flags: HW
LayerCount: 2
Fore
SplineSet
293 780 m 1
 314 785 331 768 348 760 c 0
 374 747 374 707 356 686 c 0
 309 632 267 575 202 543 c 0
 168 527 194 576 204 588 c 0
 235 652 269 713 293 780 c 1
378 721 m 1
 422 743 469 764 519 756 c 1
 521 747 523 737 525 728 c 1
 487 697 440 695 392 692 c 0
 371 692 373 704 378 721 c 1
370 690 m 1
 370 690 l 1
 390 705 399 702 417 682 c 1
 423 658 438 625 430 602 c 1
 409 569 374 574 361 610 c 1
 360 637 362 664 370 690 c 1
631 829 m 0
 632 829 634 828 635 828 c 0
 658 825 674 806 685 787 c 1
 635 734 549 660 488 632 c 1
 501 651 516 669 531 687 c 0
 569 732 592 787 631 829 c 0
666 759 m 1
 666 759 l 1
 669 759 l 1
 800 780 l 1
 811 774 828 770 831 756 c 0
 836 743 819 729 807 729 c 0
 765 723 741 713 659 730 c 1
 661 740 664 749 666 759 c 1
626 724 m 1
 644 729 656 732 669 714 c 0
 680 693 684 669 688 646 c 1
 668 621 648 597 620 580 c 0
 604 576 601 590 604 602 c 0
 611 643 615 684 626 724 c 1
298 519 m 1
 351 539 405 560 462 568 c 0
 487 570 510 590 535 578 c 0
 566 569 571 532 571 504 c 0
 562 439 551 374 543 308 c 1
 545 280 524 254 496 257 c 1
 469 271 474 310 477 336 c 0
 485 369 512 531 470 540 c 1
 432 519 390 505 348 495 c 1
 329 482 278 487 298 519 c 1
276 540 m 1
 292 537 301 522 313 513 c 0
 326 496 321 472 309 456 c 1
 311 321 325 182 309 48 c 1
 286 42 275 42 258 61 c 1
 259 207 271 355 251 500 c 0
 249 516 258 537 276 540 c 1
305 394 m 1
 343 416 380 438 422 451 c 1
 434 440 437 438 429 422 c 1
 410 402 393 382 372 364 c 1
 351 364 328 364 307 364 c 1
 295 374 298 379 305 394 c 1
298 279 m 1
 352 295 406 309 462 314 c 1
 495 301 498 282 475 257 c 1
 422 245 367 241 314 227 c 1
 295 240 289 255 298 279 c 1
144 -24 m 0
 144 -4 141 26 159 39 c 1
 186 49 217 41 244 49 c 1
 309 82 372 117 441 141 c 1
 445 135 449 128 453 122 c 1
 366 58 274 -6 185 -66 c 1
 158 -67 149 -48 144 -24 c 0
499 249 m 0
 499 249 l 1
 499 249 l 1
 502 250 l 1
 529 247 543 218 559 199 c 1
 569 178 584 155 581 130 c 0
 580 113 573 93 554 90 c 0
 531 80 518 103 511 121 c 0
 496 161 471 211 499 249 c 0
620 361 m 1
 638 367 653 371 671 364 c 1
 676 354 680 343 685 333 c 1
 678 218 677 103 671 -12 c 0
 667 -75 655 -137 638 -197 c 0
 638 -207 632 -207 624 -205 c 1
 614 -148 612 -90 608 -33 c 0
 608 98 604 231 620 361 c 1
664 356 m 1
 706 367 747 380 790 386 c 1
 804 394 821 399 835 408 c 0
 858 421 888 394 909 385 c 1
 915 312 860 184 833 112 c 1
 819 92 772 39 748 70 c 0
 735 91 747 122 723 140 c 0
 716 150 694 161 709 173 c 1
 724 168 739 164 754 159 c 1
 775 196 826 320 801 361 c 1
 793 355 786 349 778 343 c 0
 747 324 703 292 666 296 c 1
 657 319 648 334 664 356 c 1
EndSplineSet
EndChar

StartChar: uni7FCA
Encoding: 32714 32714 23
Width: 1024
VWidth: 0
Flags: HW
LayerCount: 2
Fore
SplineSet
192 689 m 1
 192 712 211 722 230 728 c 1
 298 710 354 675 363 601 c 1
 354 590 348 576 332 582 c 0
 291 604 241 649 192 689 c 1
61 499 m 1
 161 531 258 570 358 601 c 1
 370 590 377 585 374 568 c 0
 370 561 363 555 358 549 c 0
 329 542 301 535 272 528 c 0
 215 506 158 483 101 460 c 0
 90 452 64 449 58 461 c 0
 54 474 58 486 61 499 c 1
83 380 m 0
 89 381 96 381 102 382 c 0
 158 405 213 427 269 450 c 0
 291 457 317 458 339 452 c 0
 354 448 355 432 360 420 c 1
 283 393 208 356 133 324 c 0
 113 317 84 289 69 318 c 1
 65 340 67 363 83 380 c 0
125 191 m 1
 121 203 118 210 126 221 c 1
 184 249 243 277 303 300 c 1
 325 298 341 296 357 278 c 1
 355 272 353 266 351 260 c 1
 344 259 336 258 329 257 c 0
 276 237 224 213 170 195 c 0
 156 190 140 182 125 191 c 1
83 110 m 1
 102 113 128 123 145 113 c 0
 188 80 186 -1 211 -46 c 1
 216 -69 233 -93 222 -116 c 0
 209 -138 179 -127 166 -110 c 1
 154 -71 145 -30 127 7 c 1
 109 19 93 33 84 53 c 0
 72 70 73 93 83 110 c 1
171 108 m 1
 217 115 256 151 300 165 c 1
 321 179 348 175 370 167 c 1
 380 155 392 144 402 132 c 1
 396 82 383 28 353 -13 c 1
 343 -11 334 -10 324 -8 c 1
 322 -1 320 7 318 14 c 0
 315 43 321 72 324 100 c 0
 327 110 326 126 313 129 c 1
 273 109 233 89 188 71 c 1
 172 75 167 94 171 108 c 1
197 -37 m 1
 197 -37 l 1
 200 -36 l 2
 235 -19 270 -2 305 14 c 0
 321 16 338 18 353 9 c 1
 354 1 354 -6 355 -13 c 1
 339 -20 323 -28 307 -35 c 0
 283 -51 260 -68 237 -84 c 1
 227 -84 216 -88 206 -84 c 0
 199 -82 191 -79 192 -70 c 0
 188 -59 194 -48 197 -37 c 1
483 394 m 1
 493 401 507 419 520 406 c 0
 542 392 551 362 542 337 c 0
 530 318 494 326 486 344 c 0
 476 359 479 377 483 394 c 1
452 229 m 0
 463 238 475 247 486 255 c 0
 500 262 551 313 537 273 c 0
 527 249 527 223 521 198 c 0
 510 173 484 149 455 163 c 0
 429 176 426 214 452 229 c 0
424 504 m 1
 457 520 490 538 523 554 c 0
 541 566 560 569 580 560 c 0
 678 532 671 511 672 424 c 1
 680 328 673 231 670 135 c 0
 665 88 656 42 647 -4 c 1
 633 -39 577 -56 559 -17 c 1
 562 17 533 38 519 65 c 1
 532 73 577 28 581 64 c 0
 584 178 589 293 588 407 c 0
 591 450 582 494 556 529 c 1
 531 515 510 495 493 472 c 0
 475 438 418 469 424 504 c 1
778 417 m 1
 788 424 801 442 814 429 c 0
 836 415 846 386 837 361 c 0
 825 342 789 350 781 368 c 0
 771 383 774 400 778 417 c 1
747 244 m 0
 758 253 770 261 781 269 c 0
 795 276 844 323 832 287 c 0
 822 263 822 238 816 213 c 0
 805 188 779 164 750 178 c 0
 724 191 721 229 747 244 c 0
719 547 m 1
 719 547 l 1
 752 563 784 580 817 596 c 0
 835 608 855 612 875 603 c 0
 973 575 966 553 967 466 c 1
 975 370 968 274 965 178 c 0
 960 131 947 33 938 -13 c 1
 920 -57 850 -105 830 -72 c 1
 832 -44 815 -13 804 16 c 1
 818 25 859 -23 864 16 c 0
 867 130 884 335 883 449 c 0
 886 492 876 536 850 571 c 1
 825 557 805 537 788 514 c 0
 770 480 713 512 719 547 c 1
EndSplineSet
EndChar

StartChar: uni8A01
Encoding: 35329 35329 24
Width: 1024
VWidth: 0
Flags: HW
LayerCount: 2
Fore
SplineSet
306 755 m 0
 342 764 367 753 396 731 c 0
 426 704 431 644 413 611 c 1
 398 604 379 608 368 620 c 0
 338 657 300 690 281 734 c 1
 284 745 296 750 306 755 c 0
31 527 m 1
 44 534 57 542 72 543 c 0
 100 546 127 543 155 544 c 1
 259 576 363 608 470 630 c 0
 482 630 502 631 506 617 c 0
 513 601 505 579 486 578 c 0
 357 553 228 524 111 460 c 0
 94 449 70 457 62 475 c 0
 53 493 30 505 31 527 c 1
151 384 m 1
 218 393 286 406 347 436 c 0
 358 441 367 453 380 449 c 0
 396 443 407 442 406 422 c 1
 389 408 367 391 344 391 c 0
 307 391 274 364 243 347 c 1
 222 345 198 338 178 347 c 0
 162 352 143 367 151 384 c 1
107 230 m 1
 119 232 130 234 142 228 c 0
 159 221 178 223 196 222 c 1
 258 254 322 284 390 299 c 0
 404 299 423 290 421 274 c 0
 421 260 402 262 392 262 c 0
 328 236 267 202 202 177 c 0
 187 173 172 176 157 175 c 1
 137 186 103 204 107 230 c 1
147 152 m 1
 164 145 181 137 195 125 c 1
 221 66 230 4 238 -59 c 1
 231 -64 224 -68 217 -73 c 1
 196 -62 185 -49 175 -26 c 0
 164 7 154 41 143 74 c 0
 133 100 139 126 147 152 c 1
252 112 m 0
 253 113 253 113 254 114 c 0
 262 119 271 116 280 115 c 0
 308 112 331 129 358 134 c 0
 379 139 390 127 385 105 c 1
 375 84 342 89 326 73 c 1
 311 65 289 51 272 58 c 1
 261 73 246 93 252 112 c 0
409 171 m 1
 436 161 449 148 463 122 c 1
 450 41 422 -37 368 -101 c 0
 362 -112 348 -111 337 -113 c 1
 325 -101 315 -88 314 -69 c 1
 346 0 366 71 379 146 c 0
 381 161 396 168 409 171 c 1
175 -59 m 1
 195 -59 217 -59 238 -52 c 0
 272 -48 309 -38 341 -53 c 0
 351 -59 357 -73 352 -84 c 1
 318 -110 255 -97 219 -125 c 1
 197 -121 181 -94 169 -77 c 0
 166 -70 173 -65 175 -59 c 1
EndSplineSet
EndChar

StartChar: uni8A2A
Encoding: 35370 35370 25
Width: 1024
VWidth: 0
Flags: HW
LayerCount: 2
Fore
SplineSet
306 755 m 0
 342 764 367 753 396 731 c 0
 426 704 431 644 413 611 c 1
 398 604 379 608 368 620 c 0
 338 657 300 690 281 734 c 1
 284 745 296 750 306 755 c 0
31 527 m 1
 44 534 57 542 72 543 c 0
 100 546 127 543 155 544 c 1
 259 576 363 608 470 630 c 0
 482 630 502 631 506 617 c 0
 513 601 505 579 486 578 c 0
 357 553 228 524 111 460 c 0
 94 449 70 457 62 475 c 0
 53 493 30 505 31 527 c 1
151 384 m 1
 218 393 286 406 347 436 c 0
 358 441 367 453 380 449 c 0
 396 443 407 442 406 422 c 1
 389 408 367 391 344 391 c 0
 307 391 274 364 243 347 c 1
 222 345 198 338 178 347 c 0
 162 352 143 367 151 384 c 1
107 230 m 1
 119 232 130 234 142 228 c 0
 159 221 178 223 196 222 c 1
 258 254 322 284 390 299 c 0
 404 299 423 290 421 274 c 0
 421 260 402 262 392 262 c 0
 328 236 267 202 202 177 c 0
 187 173 172 176 157 175 c 1
 137 186 103 204 107 230 c 1
147 152 m 1
 164 145 181 137 195 125 c 1
 221 66 230 4 238 -59 c 1
 231 -64 224 -68 217 -73 c 1
 196 -62 185 -49 175 -26 c 0
 164 7 154 41 143 74 c 0
 133 100 139 126 147 152 c 1
252 112 m 0
 253 113 253 113 254 114 c 0
 262 119 271 116 280 115 c 0
 308 112 331 129 358 134 c 0
 379 139 390 127 385 105 c 1
 375 84 342 89 326 73 c 1
 311 65 289 51 272 58 c 1
 261 73 246 93 252 112 c 0
409 171 m 1
 436 161 449 148 463 122 c 1
 450 41 422 -37 368 -101 c 0
 362 -112 348 -111 337 -113 c 1
 325 -101 315 -88 314 -69 c 1
 346 0 366 71 379 146 c 0
 381 161 396 168 409 171 c 1
175 -59 m 1
 195 -59 217 -59 238 -52 c 0
 272 -48 309 -38 341 -53 c 0
 351 -59 357 -73 352 -84 c 1
 318 -110 255 -97 219 -125 c 1
 197 -121 181 -94 169 -77 c 0
 166 -70 173 -65 175 -59 c 1
622 704 m 1
 614 736 670 733 688 728 c 0
 714 722 741 718 762 701 c 0
 785 680 781 646 795 620 c 0
 801 605 807 587 798 572 c 0
 784 557 739 565 722 569 c 0
 695 583 708 618 686 638 c 1
 667 663 643 681 622 704 c 1
443 471 m 1
 585 495 730 510 870 547 c 0
 890 551 909 562 926 570 c 1
 947 570 973 568 985 547 c 0
 998 532 1016 506 989 495 c 1
 899 493 809 497 720 481 c 1
 658 456 596 427 532 408 c 0
 510 406 490 413 471 423 c 0
 455 431 427 451 443 471 c 1
720 466 m 0
 747 467 781 468 793 438 c 1
 777 368 769 294 732 232 c 0
 690 153 645 72 577 12 c 0
 541 -19 500 -45 466 -78 c 1
 450 -84 452 -64 463 -58 c 0
 536 27 610 110 650 216 c 1
 680 280 713 349 711 421 c 0
 706 437 695 461 720 466 c 0
759 337 m 1
 792 341 825 346 858 350 c 1
 878 347 885 359 893 375 c 1
 902 375 912 375 921 375 c 1
 935 353 940 330 941 304 c 1
 928 230 912 155 881 86 c 1
 855 14 815 -51 761 -106 c 0
 741 -129 699 -145 671 -133 c 0
 643 -122 664 -101 670 -83 c 1
 663 -67 645 -41 656 -27 c 1
 674 -33 686 -49 702 -57 c 1
 754 -44 776 31 802 71 c 0
 829 123 856 181 865 239 c 0
 870 264 846 281 823 272 c 1
 802 275 782 282 762 290 c 0
 737 295 749 323 759 337 c 1
EndSplineSet
EndChar

StartChar: uni8FB6
Encoding: 36790 36790 26
Width: 1024
VWidth: 0
Flags: HW
LayerCount: 2
Fore
SplineSet
148 365 m 1
 159 397 186 418 220 424 c 0
 250 430 278 405 282 376 c 0
 282 338 236 313 234 273 c 1
 226 258 224 231 244 225 c 1
 263 224 284 236 303 227 c 1
 328 205 341 157 339 126 c 1
 296 97 241 82 196 58 c 1
 179 56 155 78 171 94 c 0
 187 105 209 102 222 118 c 0
 234 128 251 141 247 158 c 1
 222 174 185 191 190 227 c 0
 198 255 199 285 209 313 c 1
 225 320 221 356 200 344 c 1
 182 346 159 349 148 365 c 1
132 2 m 1
 114 -19 74 -38 54 0 c 1
 53 35 81 68 116 89 c 0
 146 106 176 81 202 69 c 1
 327 -21 526 -81 684 -86 c 0
 784 -88 890 -90 986 -61 c 1
 1014 -41 1011 -74 1000 -90 c 0
 974 -123 956 -136 928 -166 c 1
 867 -189 791 -182 727 -181 c 0
 540 -166 303 -121 172 24 c 1
 155 55 139 33 132 2 c 1
215 664 m 1
 269 658 323 653 334 595 c 0
 331 585 323 565 320 555 c 1
 295 543 261 571 244 534 c 1
 231 561 249 555 229 579 c 1
 211 584 175 606 161 619 c 1
 166 648 183 649 215 664 c 1
EndSplineSet
EndChar

StartChar: uni31C0
Encoding: 12736 12736 27
Width: 1024
VWidth: 0
Flags: HW
LayerCount: 2
Fore
SplineSet
364 259 m 1
 462 333 567 389 675 451 c 1
 720 478 727 468 699 440 c 0
 620 365 542 290 485 192 c 1
 458 182 404 165 386 194 c 0
 371 219 360 234 364 259 c 1
EndSplineSet
EndChar

StartChar: uni31C1
Encoding: 12737 12737 28
Width: 1024
VWidth: 0
Flags: HW
LayerCount: 2
Fore
SplineSet
502 583 m 1
 523 587 543 586 563 579 c 1
 597 527 628 474 636 412 c 1
 644 359 650 305 647 251 c 1
 644 166 626 82 598 1 c 1
 580 -57 543 -153 479 -169 c 0
 453 -175 412 -178 402 -145 c 1
 384 -116 400 -98 401 -74 c 0
 401 -58 400 -23 395 -7 c 1
 399 3 425 -49 442 -47 c 1
 488 -17 552 205 553 261 c 1
 552 342 557 430 522 505 c 1
 508 527 476 558 502 583 c 1
EndSplineSet
EndChar

StartChar: uni31C2
Encoding: 12738 12738 29
Width: 1024
VWidth: 0
Flags: HW
LayerCount: 2
Fore
SplineSet
452 742 m 0
 464 751 477 756 492 755 c 0
 533 761 544 722 532 691 c 1
 534 596 550 502 563 408 c 0
 594 234 701 81 817 -42 c 1
 850 -89 866 -19 877 8 c 1
 892 24 891 89 920 71 c 1
 920 19 922 -32 924 -84 c 0
 927 -114 982 -123 958 -160 c 0
 936 -191 891 -185 861 -169 c 0
 662 -63 556 152 500 362 c 0
 473 451 466 544 450 636 c 0
 448 671 410 717 452 742 c 0
EndSplineSet
EndChar

StartChar: uni31C6
Encoding: 12742 12742 30
Width: 1024
VWidth: 0
Flags: HW
LayerCount: 2
Fore
SplineSet
346 674 m 1
 366 683 387 686 409 687 c 0
 472 689 532 701 595 713 c 0
 636 720 662 671 673 638 c 1
 665 408 670 151 613 -71 c 0
 608 -92 588 -142 566 -106 c 1
 548 -63 501 -29 498 17 c 1
 507 3 554 0 560 19 c 1
 567 96 569 173 572 250 c 0
 575 355 605 540 549 630 c 1
 505 617 460 602 414 596 c 0
 382 591 338 545 312 583 c 1
 298 616 319 655 346 674 c 1
EndSplineSet
EndChar

StartChar: uni31CF
Encoding: 12751 12751 31
Width: 1024
VWidth: 0
Flags: HW
LayerCount: 2
Fore
SplineSet
502 324 m 1
 516 335 527 337 544 331 c 1
 600 264 660 201 730 149 c 1
 790 112 849 64 917 46 c 0
 938 40 953 39 975 28 c 0
 981 25 980 10 974 10 c 0
 890 4 879 -20 819 -36 c 1
 748 6 704 73 633 137 c 1
 592 184 550 229 509 275 c 1
 498 291 500 307 502 324 c 1
EndSplineSet
EndChar

StartChar: uni31D0
Encoding: 12752 12752 32
Width: 1024
VWidth: 0
Flags: HW
LayerCount: 2
Fore
SplineSet
93 318 m 1
 118 335 144 332 175 331 c 0
 197 330 218 332 238 340 c 1
 430 381 623 407 818 412 c 1
 841 436 875 427 894 404 c 1
 916 382 909 348 879 338 c 1
 843 340 806 343 770 345 c 1
 629 339 454 305 312 281 c 1
 273 269 244 240 212 217 c 1
 156 213 82 254 93 318 c 1
EndSplineSet
EndChar

StartChar: uni31D1
Encoding: 12753 12753 33
Width: 1024
VWidth: 0
Flags: HW
LayerCount: 2
Fore
SplineSet
500 545 m 1
 500 545 l 1
 520 554 545 553 563 540 c 0
 592 516 586 476 584 443 c 0
 583 388 586 332 585 277 c 0
 583 154 599 30 584 -93 c 0
 576 -124 566 -154 560 -187 c 1
 542 -223 538 -184 531 -159 c 0
 518 -103 506 -47 502 11 c 0
 494 164 485 316 484 469 c 0
 484 494 474 529 500 545 c 1
EndSplineSet
EndChar

StartChar: uni31D2
Encoding: 12754 12754 34
Width: 1024
VWidth: 0
Flags: HW
LayerCount: 2
Fore
SplineSet
291 753 m 1
 345 749 366 717 374 655 c 1
 331 621 212 573 144 569 c 1
 144 575 144 580 144 586 c 0
 182 651 247 694 291 753 c 1
EndSplineSet
EndChar

StartChar: uni31D3
Encoding: 12755 12755 35
Width: 1024
VWidth: 0
Flags: HW
LayerCount: 2
Fore
SplineSet
616 594 m 1
 647 601 668 592 673 556 c 0
 679 515 676 473 676 432 c 0
 679 340 659 250 637 162 c 0
 616 78 578 -22 511 -80 c 1
 495 -88 470 -97 455 -92 c 1
 570 31 576 204 600 363 c 1
 614 440 601 518 616 594 c 1
EndSplineSet
EndChar

StartChar: uni31D4
Encoding: 12756 12756 36
Width: 1024
VWidth: 0
Flags: HW
LayerCount: 2
Fore
SplineSet
415 679 m 1
 407 711 463 709 481 704 c 0
 507 698 534 693 555 676 c 1
 578 655 574 622 588 595 c 1
 594 580 600 562 591 547 c 1
 577 532 532 540 515 544 c 1
 488 558 501 593 479 613 c 1
 460 638 436 656 415 679 c 1
EndSplineSet
EndChar

StartChar: uni31D5
Encoding: 12757 12757 37
Width: 1024
VWidth: 0
Flags: HW
LayerCount: 2
Fore
SplineSet
362 515 m 1
 415 531 469 545 523 559 c 1
 549 562 571 584 598 581 c 1
 618 574 638 564 650 545 c 0
 664 522 675 496 680 469 c 1
 687 347 681 224 673 102 c 1
 658 43 615 13 595 66 c 1
 597 95 600 126 602 155 c 0
 606 260 605 364 599 469 c 0
 598 493 600 532 569 536 c 1
 515 509 454 508 397 493 c 1
 381 480 334 462 336 499 c 1
 345 504 353 510 362 515 c 1
EndSplineSet
EndChar

StartChar: uni31D6
Encoding: 12758 12758 38
Width: 1024
VWidth: 0
Flags: HW
LayerCount: 2
Fore
SplineSet
275 512 m 1
 278 514 281 516 284 517 c 0
 326 533 370 543 414 551 c 0
 470 563 527 565 584 572 c 0
 638 580 692 588 746 597 c 1
 776 597 800 573 812 547 c 1
 823 529 839 498 816 482 c 1
 800 474 778 468 761 478 c 1
 754 491 749 512 729 500 c 1
 704 489 680 478 657 463 c 1
 644 459 624 450 638 469 c 0
 649 485 665 496 676 512 c 1
 693 534 663 550 643 544 c 1
 595 545 549 540 502 530 c 1
 428 516 358 503 281 485 c 1
 260 482 253 507 275 512 c 1
EndSplineSet
EndChar

StartChar: uni31DA
Encoding: 12762 12762 39
Width: 1024
VWidth: 0
Flags: HW
LayerCount: 2
Fore
SplineSet
379 578 m 1
 379 578 l 1
465 745 m 1
 511 786 563 741 567 690 c 1
 565 676 556 663 558 648 c 1
 550 470 542 293 552 115 c 0
 555 44 549 -28 547 -99 c 1
 541 -121 537 -162 507 -161 c 1
 467 -140 476 -97 463 -60 c 1
 456 -34 424 -15 427 10 c 1
 439 4 452 -3 465 -7 c 1
 478 -16 485 -10 487 5 c 1
 491 224 475 442 481 661 c 0
 482 690 469 717 465 745 c 1
609 303 m 1
 609 303 l 1
EndSplineSet
EndChar

StartChar: uni31DD
Encoding: 12765 12765 40
Width: 1024
VWidth: 0
Flags: HW
LayerCount: 2
Fore
SplineSet
132 2 m 1
 114 -19 74 -38 54 0 c 1
 53 35 81 68 116 89 c 0
 146 106 176 81 202 69 c 1
 327 -21 526 -81 684 -86 c 0
 784 -88 890 -90 986 -61 c 1
 1014 -41 1011 -74 1000 -90 c 0
 974 -123 956 -136 928 -166 c 1
 867 -189 791 -182 727 -181 c 0
 540 -166 303 -121 172 24 c 1
 155 55 139 33 132 2 c 1
EndSplineSet
EndChar

StartChar: uni31DF
Encoding: 12767 12767 41
Width: 1024
VWidth: 0
Flags: HW
LayerCount: 2
Fore
SplineSet
413 522 m 1
 442 516 488 503 480 465 c 1
 439 413 396 362 362 305 c 1
 348 286 334 254 353 236 c 1
 417 206 622 157 671 233 c 1
 674 261 677 290 680 318 c 0
 684 354 684 357 701 329 c 1
 709 309 717 288 725 268 c 1
 729 252 740 237 758 239 c 1
 778 237 801 232 804 208 c 1
 818 156 744 129 709 110 c 1
 617 88 517 83 425 111 c 1
 363 129 306 158 284 221 c 0
 276 244 285 270 287 294 c 1
 321 369 349 469 413 522 c 1
EndSplineSet
EndChar

StartChar: uni56DB
Encoding: 22235 22235 42
Width: 1024
VWidth: 0
Flags: HW
LayerCount: 2
Fore
SplineSet
118 499 m 1
 141 513 156 518 182 504 c 1
 189 489 203 471 190 456 c 0
 179 444 181 429 180 414 c 1
 208 331 243 248 250 160 c 0
 250 140 246 115 222 112 c 0
 211 109 191 110 190 124 c 0
 156 213 145 305 142 400 c 1
 132 415 121 429 111 444 c 1
 106 461 116 481 118 499 c 1
274 513 m 1
 404 528 533 547 663 560 c 0
 717 568 773 561 824 583 c 1
 860 589 889 556 900 524 c 0
 908 492 929 460 921 426 c 1
 874 315 841 206 795 102 c 0
 776 61 702 65 700 116 c 1
 723 245 765 371 782 501 c 1
 803 556 737 509 711 518 c 1
 576 505 443 477 310 453 c 1
 267 425 228 490 274 513 c 1
372 468 m 1
 396 482 414 494 435 471 c 1
 440 408 439 342 433 280 c 1
 398 268 364 249 328 245 c 0
 297 241 267 251 236 254 c 0
 235 258 235 262 234 266 c 0
 271 285 309 302 346 321 c 1
 356 341 362 361 361 384 c 0
 364 412 364 441 372 468 c 1
551 456 m 0
 555 478 567 505 590 505 c 1
 607 492 624 478 622 454 c 0
 622 427 615 400 610 374 c 0
 607 336 692 354 716 345 c 0
 729 343 743 332 741 318 c 1
 678 305 620 277 555 301 c 1
 542 317 530 327 535 348 c 0
 538 384 546 420 551 456 c 0
241 146 m 1
 264 153 286 159 309 166 c 0
 425 187 589 219 706 186 c 1
 731 172 727 139 704 126 c 1
 591 129 466 131 361 83 c 1
 340 99 314 104 290 113 c 0
 273 123 234 118 241 146 c 1
EndSplineSet
EndChar

StartChar: uni570B
Encoding: 22283 22283 43
Width: 1024
VWidth: 0
Flags: HW
LayerCount: 2
Fore
SplineSet
166 641 m 1
 192 636 208 627 224 605 c 0
 237 588 281 561 241 550 c 1
 214 550 212 519 199 502 c 1
 197 433 197 363 197 294 c 0
 194 216 203 139 210 62 c 0
 214 27 215 -7 210 -42 c 1
 217 -68 179 -106 162 -74 c 0
 143 -34 150 12 153 54 c 0
 152 146 145 239 142 331 c 0
 138 381 141 431 147 481 c 0
 151 511 153 542 149 572 c 0
 150 595 136 633 166 641 c 1
195 684 m 1
 338 727 487 745 633 772 c 0
 666 780 700 780 734 779 c 1
 758 769 781 755 803 740 c 0
 829 720 852 697 869 669 c 1
 875 441 863 151 875 -84 c 1
 863 -143 840 -162 780 -172 c 1
 750 -147 761 -119 754 -85 c 1
 744 -62 722 -50 705 -34 c 1
 699 -13 723 -29 734 -29 c 0
 750 -32 763 -27 769 -11 c 1
 769 220 772 451 768 682 c 1
 753 704 744 730 724 748 c 1
 545 722 370 684 197 639 c 1
 182 650 188 670 195 684 c 1
247 509 m 0
 254 513 262 516 269 520 c 0
 366 546 466 561 562 590 c 0
 576 596 592 595 605 587 c 1
 620 567 599 557 581 551 c 0
 486 531 390 512 295 492 c 1
 286 482 274 472 259 477 c 0
 244 478 236 498 247 509 c 0
443 713 m 1
 465 706 486 700 499 679 c 0
 520 631 531 579 546 528 c 0
 583 405 629 284 741 212 c 1
 760 194 789 180 794 152 c 0
 801 120 766 118 744 127 c 0
 567 241 518 458 446 645 c 0
 440 666 419 696 443 713 c 1
589 682 m 1
 598 695 609 700 624 705 c 1
 665 700 676 692 703 658 c 1
 723 605 734 593 707 540 c 1
 698 538 690 537 681 535 c 1
 662 564 644 595 628 626 c 0
 618 647 603 664 589 682 c 1
358 493 m 1
 371 485 385 479 398 471 c 1
 400 433 391 409 364 381 c 0
 348 370 331 359 314 348 c 0
 304 342 298 331 291 323 c 1
 285 324 278 326 272 327 c 1
 297 374 317 423 339 472 c 0
 342 482 351 486 358 493 c 1
249 327 m 1
 267 327 287 327 305 327 c 0
 348 334 389 344 431 352 c 0
 450 354 440 374 440 386 c 0
 436 404 437 422 438 440 c 1
 454 449 472 433 487 424 c 1
 501 397 519 370 517 339 c 0
 515 322 498 320 484 323 c 0
 470 323 459 334 445 331 c 0
 408 313 372 294 336 276 c 0
 324 270 304 264 306 247 c 1
 287 243 267 235 251 249 c 1
 239 271 242 304 249 327 c 1
254 157 m 1
 259 153 265 149 270 145 c 0
 273 141 278 145 282 145 c 0
 303 149 323 157 342 166 c 0
 392 196 441 228 491 259 c 0
 502 268 514 273 528 275 c 1
 527 269 526 263 525 257 c 0
 508 242 491 228 474 213 c 0
 430 174 384 138 338 102 c 0
 325 93 315 79 300 73 c 0
 286 70 273 78 263 88 c 0
 254 97 248 109 246 122 c 0
 243 134 241 151 254 157 c 1
642 475 m 1
 666 496 692 487 702 459 c 1
 668 329 622 227 541 116 c 0
 527 93 506 76 494 51 c 1
 478 55 471 56 473 74 c 1
 530 159 589 242 621 340 c 0
 631 385 636 431 642 475 c 1
263 13 m 0
 293 27 322 38 355 42 c 0
 407 54 461 62 514 70 c 0
 582 78 657 83 722 58 c 1
 734 47 730 26 714 22 c 0
 573 13 429 12 298 -47 c 0
 282 -52 256 -45 257 -25 c 0
 254 -11 248 4 263 13 c 0
EndSplineSet
EndChar

StartChar: uni63A1
Encoding: 25505 25505 44
Width: 1024
VWidth: 0
Flags: HW
LayerCount: 2
Fore
SplineSet
379 578 m 1
 379 578 l 1
105 559 m 0
 106 560 107 560 108 561 c 0
 179 595 256 615 323 658 c 1
 331 656 338 654 346 652 c 0
 360 650 360 628 357 618 c 1
 304 573 249 523 185 487 c 1
 158 506 124 517 100 540 c 0
 92 547 102 553 105 559 c 0
187 739 m 1
 233 780 286 735 290 684 c 0
 288 670 279 657 281 642 c 0
 273 464 265 287 275 109 c 0
 278 38 272 -34 270 -105 c 1
 264 -127 260 -168 230 -167 c 1
 190 -146 198 -103 185 -66 c 0
 178 -40 147 -21 150 4 c 1
 162 -2 175 -9 188 -13 c 0
 201 -22 208 -16 210 -1 c 0
 214 218 197 436 203 655 c 0
 204 684 191 711 187 739 c 1
65 230 m 1
 151 303 229 384 316 456 c 0
 332 466 331 446 330 436 c 1
 251 354 185 263 117 172 c 0
 111 162 97 147 86 159 c 0
 69 177 54 205 65 230 c 1
399 651 m 1
 433 663 463 685 494 703 c 1
 519 727 541 757 570 775 c 1
 605 780 637 777 667 759 c 0
 692 740 700 722 697 691 c 1
 654 666 609 681 561 679 c 1
 514 669 466 660 421 641 c 0
 412 635 394 638 399 651 c 1
384 582 m 1
 407 597 427 577 443 562 c 0
 481 525 464 445 434 408 c 1
 413 393 396 423 394 441 c 1
 385 463 397 486 396 509 c 0
 393 533 371 559 384 582 c 1
569 622 m 1
 591 613 613 595 613 569 c 0
 609 543 616 516 608 491 c 0
 597 461 566 481 563 504 c 0
 556 540 532 600 569 622 c 1
689 656 m 1
 715 669 740 676 763 651 c 0
 771 639 793 624 779 609 c 1
 765 572 768 521 736 495 c 0
 729 494 717 492 720 503 c 0
 719 556 690 603 689 656 c 1
351 281 m 0
 336 300 354 313 373 307 c 0
 435 297 538 363 599 375 c 1
 658 399 721 411 781 434 c 0
 817 445 849 424 851 386 c 1
 867 352 824 353 804 366 c 1
 749 362 692 363 639 352 c 1
 565 314 485 286 406 258 c 1
 383 233 365 265 351 281 c 0
559 433 m 1
 559 433 l 1
 563 433 l 1
 567 432 l 2
 592 435 616 426 619 398 c 0
 622 367 623 336 625 305 c 0
 633 187 640 69 638 -49 c 0
 639 -70 639 -90 628 -109 c 1
 622 -129 611 -148 596 -164 c 0
 585 -180 566 -186 550 -174 c 0
 532 -155 547 -130 559 -112 c 1
 561 -48 566 16 571 80 c 1
 561 179 546 278 541 377 c 0
 541 398 528 430 559 433 c 1
589 363 m 1
 608 371 626 384 640 365 c 1
 638 358 637 352 635 345 c 0
 579 269 526 192 462 122 c 0
 435 96 407 71 380 46 c 0
 362 32 342 20 323 7 c 0
 317 -1 315 10 311 14 c 1
 321 28 331 41 341 55 c 0
 428 154 516 252 589 363 c 1
590 274 m 1
 603 292 606 307 628 292 c 1
 646 272 657 246 677 228 c 0
 736 166 800 113 875 71 c 0
 903 50 937 39 969 25 c 0
 985 23 996 1 981 -10 c 1
 970 -11 958 -12 947 -13 c 0
 931 -17 917 -27 902 -34 c 0
 888 -42 874 -51 858 -41 c 1
 837 -36 822 -22 807 -7 c 0
 721 74 638 164 590 274 c 1
609 303 m 1
 609 303 l 1
EndSplineSet
EndChar

StartChar: uni65E9
Encoding: 26089 26089 45
Width: 1024
VWidth: 0
Flags: HW
LayerCount: 2
Fore
SplineSet
262 693 m 1
 280 709 294 708 319 704 c 1
 343 674 367 643 383 607 c 1
 394 571 404 537 414 501 c 0
 419 484 430 432 398 439 c 0
 386 443 379 456 372 466 c 0
 350 516 322 559 294 613 c 0
 282 639 258 663 262 693 c 1
448 709 m 1
 464 712 479 711 495 712 c 0
 538 722 586 733 624 755 c 0
 634 759 629 793 641 781 c 0
 650 774 657 764 668 760 c 0
 704 747 731 732 747 695 c 1
 745 675 743 654 741 634 c 0
 727 564 706 497 683 428 c 0
 678 414 662 402 648 402 c 0
 624 402 592 411 591 445 c 0
 580 513 620 579 622 646 c 0
 622 665 630 684 625 702 c 0
 622 720 606 715 596 706 c 0
 577 685 551 673 528 658 c 1
 505 655 479 633 459 647 c 0
 436 664 428 688 448 709 c 1
428 596 m 0
 429 597 430 598 431 599 c 0
 467 606 502 604 533 609 c 1
 564 599 557 565 537 547 c 1
 506 533 480 544 454 562 c 0
 441 573 423 580 428 596 c 0
290 378 m 1
 297 395 301 407 319 415 c 0
 383 456 487 463 558 489 c 0
 570 494 584 489 594 482 c 1
 596 463 589 455 569 449 c 0
 496 415 426 401 353 368 c 0
 328 357 308 357 290 378 c 1
115 212 m 1
 165 233 217 246 269 260 c 0
 341 273 413 285 485 299 c 0
 567 313 648 332 730 343 c 0
 756 345 778 363 804 354 c 0
 838 347 878 336 895 303 c 0
 908 275 877 248 855 235 c 1
 815 230 798 280 761 285 c 1
 675 279 590 271 504 263 c 0
 435 261 370 235 307 210 c 0
 263 193 230 161 191 139 c 1
 181 142 173 145 163 148 c 0
 139 159 102 180 115 212 c 1
501 434 m 1
 539 423 561 410 567 365 c 0
 575 333 561 299 565 266 c 1
 553 153 560 61 501 -127 c 1
 461 61 478 163 467 256 c 1
 465 319 462 302 462 365 c 1
 454 390 478 436 501 434 c 1
EndSplineSet
EndChar

StartChar: uni70BA
Encoding: 28858 28858 46
Width: 1024
VWidth: 0
Flags: HW
LayerCount: 2
Fore
SplineSet
283 593 m 2
 283 593 l 1
 306 597 328 600 352 598 c 1
 373 577 389 563 400 535 c 1
 390 518 392 518 371 512 c 1
 365 516 360 520 354 524 c 0
 331 537 307 550 283 562 c 0
 281 568 280 572 278 578 c 0
 280 583 281 588 283 593 c 2
532 809 m 1
 532 809 l 1
 559 795 574 783 595 759 c 1
 597 745 598 739 588 728 c 1
 568 722 547 715 526 712 c 0
 487 701 453 690 418 669 c 0
 397 657 374 648 352 638 c 0
 350 642 348 646 346 650 c 0
 388 693 433 731 478 771 c 0
 492 782 503 796 515 809 c 0
 520 810 526 809 532 809 c 1
414 647 m 0
 426 656 442 657 457 661 c 1
 481 649 494 636 505 610 c 1
 507 585 516 576 493 563 c 1
 485 566 478 570 470 573 c 0
 449 600 426 616 409 643 c 0
 411 644 412 646 414 647 c 0
633 719 m 0
 670 717 712 701 709 656 c 1
 701 625 665 624 645 604 c 0
 561 499 452 412 369 304 c 0
 332 261 294 217 249 182 c 1
 234 178 207 138 200 166 c 1
 225 198 250 230 275 262 c 0
 364 377 462 486 551 601 c 0
 564 623 592 640 593 667 c 1
 578 696 605 719 633 719 c 0
178 449 m 1
 236 466 293 482 353 487 c 1
 434 500 514 520 595 536 c 0
 620 542 648 542 668 560 c 0
 680 571 692 609 710 582 c 0
 721 567 735 553 744 537 c 1
 750 515 733 500 711 503 c 0
 682 506 668 473 647 457 c 0
 630 443 619 425 610 405 c 1
 607 380 579 385 588 409 c 0
 596 432 600 457 613 478 c 1
 628 490 627 519 602 513 c 0
 557 507 513 495 469 483 c 0
 406 463 342 446 282 418 c 0
 258 411 240 392 220 377 c 0
 206 367 200 347 185 339 c 1
 158 336 143 364 148 388 c 0
 153 411 162 432 178 449 c 1
498 384 m 1
 538 395 579 394 620 398 c 0
 633 400 646 398 658 402 c 0
 687 425 703 427 739 424 c 1
 747 414 756 409 752 395 c 0
 752 391 750 387 746 385 c 0
 737 378 730 368 720 363 c 0
 669 333 631 300 589 257 c 0
 572 236 566 261 574 275 c 0
 592 298 639 339 634 369 c 1
 607 363 581 352 555 343 c 0
 537 332 522 311 499 311 c 0
 489 308 475 317 473 327 c 0
 473 357 474 367 498 384 c 1
384 233 m 0
 384 233 l 1
 508 242 649 255 768 289 c 1
 774 296 780 304 790 300 c 0
 811 300 829 287 848 280 c 1
 873 258 879 239 886 207 c 0
 892 138 875 80 851 15 c 1
 822 -41 795 -88 750 -133 c 0
 731 -156 707 -175 681 -191 c 1
 647 -192 615 -194 600 -158 c 0
 589 -134 613 -119 612 -91 c 1
 617 -79 605 -70 601 -59 c 0
 598 -51 589 -42 600 -36 c 1
 617 -49 638 -73 660 -71 c 1
 687 -37 716 -4 735 36 c 1
 757 99 778 158 781 226 c 0
 785 248 767 257 748 251 c 0
 672 235 596 223 520 211 c 1
 474 198 427 190 382 173 c 1
 342 169 347 232 384 233 c 0
158 115 m 1
 197 115 226 120 256 90 c 1
 272 65 288 41 295 12 c 0
 302 -11 298 -22 284 -40 c 1
 237 -38 212 -6 192 32 c 0
 181 53 165 72 151 92 c 1
 153 100 156 107 158 115 c 1
288 160 m 0
 335 154 360 155 397 120 c 0
 420 92 425 72 425 37 c 1
 410 25 406 25 386 22 c 1
 337 41 310 106 283 148 c 0
 285 152 286 156 288 160 c 0
469 155 m 1
 481 171 481 166 502 169 c 0
 536 166 562 159 583 130 c 1
 591 108 599 96 593 73 c 1
 572 65 565 67 542 72 c 0
 497 81 491 120 469 155 c 1
650 216 m 1
 682 214 704 212 726 188 c 0
 751 162 750 140 749 107 c 1
 732 89 736 85 711 89 c 0
 684 89 677 151 656 164 c 0
 647 174 642 188 638 201 c 1
 642 206 646 211 650 216 c 1
EndSplineSet
EndChar

StartChar: uni71CC
Encoding: 29132 29132 47
Width: 1024
VWidth: 0
Flags: HW
LayerCount: 2
Fore
SplineSet
546 661 m 0
 526 645 497 635 465 614 c 0
 448 604 429 594 410 588 c 1
 392 587 369 584 363 604 c 1
 368 613 374 622 379 631 c 1
 438 651 498 663 557 682 c 1
 570 676 571 680 546 661 c 0
640 664 m 0
 655 650 656 622 658 602 c 1
 610 520 518 465 446 405 c 1
 449 462 535 604 551 643 c 0
 559 662 577 686 593 688 c 0
 609 690 632 671 640 664 c 0
486 357 m 0
 515 362 543 342 566 327 c 1
 623 282 661 228 686 153 c 1
 669 115 646 77 626 48 c 1
 609 38 585 34 567 44 c 1
 556 54 563 75 547 83 c 1
 519 106 497 119 460 148 c 1
 453 164 471 171 483 164 c 1
 518 161 551 140 587 142 c 1
 606 140 606 164 599 176 c 1
 573 237 522 279 479 328 c 1
 468 337 471 355 486 357 c 0
EndSplineSet
EndChar

StartChar: uni83EF
Encoding: 33775 33775 48
Width: 1024
VWidth: 0
Flags: HW
LayerCount: 2
Fore
SplineSet
252 635 m 0
 255 639 260 640 264 641 c 0
 312 656 362 667 411 679 c 0
 429 682 447 689 465 695 c 0
 489 705 517 690 528 667 c 0
 533 654 522 643 512 638 c 0
 500 629 484 631 470 631 c 0
 446 629 421 622 398 615 c 0
 370 606 341 599 314 587 c 0
 296 576 273 583 261 599 c 0
 254 609 247 622 252 635 c 0
337 752 m 0
 344 756 352 761 360 763 c 0
 380 770 401 757 412 740 c 0
 422 730 416 715 415 703 c 0
 421 663 450 633 461 595 c 0
 464 580 471 565 470 550 c 0
 472 537 457 528 446 534 c 0
 425 542 414 564 403 582 c 0
 378 618 357 655 334 692 c 0
 327 704 312 711 311 726 c 0
 313 740 327 746 337 752 c 0
564 710 m 0
 577 724 599 726 617 727 c 0
 635 727 652 730 670 732 c 0
 696 735 723 736 747 724 c 0
 759 718 772 708 773 693 c 0
 774 684 767 678 759 677 c 0
 748 676 736 674 724 675 c 0
 702 677 680 673 658 670 c 0
 640 667 621 665 603 661 c 0
 591 658 578 663 568 671 c 0
 556 680 554 699 564 710 c 0
615 807 m 0
 622 809 630 811 637 812 c 0
 660 808 682 794 704 778 c 0
 712 767 703 757 693 751 c 0
 682 735 675 715 668 697 c 0
 660 673 650 650 640 627 c 0
 634 609 624 591 608 579 c 0
 600 572 588 566 579 575 c 0
 569 587 572 604 577 617 c 0
 584 644 600 668 609 694 c 0
 616 712 616 733 610 751 c 0
 608 764 597 772 592 784 c 0
 591 797 605 803 615 807 c 0
257 502 m 0
 274 518 298 522 320 522 c 0
 367 519 413 533 458 544 c 0
 526 559 591 586 660 594 c 0
 682 599 704 578 699 556 c 0
 695 536 671 534 655 538 c 0
 596 540 537 527 480 514 c 0
 428 503 378 486 329 467 c 0
 307 461 287 443 264 450 c 0
 241 456 240 489 257 502 c 0
264 340 m 0
 268 342 272 342 276 342 c 0
 317 352 355 372 392 391 c 0
 403 395 409 406 420 411 c 0
 429 415 435 406 434 398 c 0
 435 385 437 370 429 359 c 0
 423 354 415 353 410 346 c 0
 402 335 390 329 379 322 c 0
 359 311 339 301 319 292 c 0
 309 288 301 280 290 278 c 0
 277 276 267 288 260 298 c 0
 251 311 251 330 264 340 c 0
309 450 m 0
 317 456 325 461 334 464 c 0
 351 470 369 459 377 444 c 0
 385 432 376 418 376 405 c 0
 379 376 401 353 410 325 c 0
 415 305 423 286 425 266 c 0
 426 255 423 241 411 237 c 0
 399 233 387 242 381 252 c 0
 371 268 359 283 351 300 c 0
 336 329 332 361 320 391 c 0
 316 404 303 411 298 423 c 0
 293 433 301 444 309 450 c 0
615 431 m 0
 619 437 625 442 632 445 c 0
 655 456 682 455 707 458 c 0
 727 461 748 461 768 460 c 0
 777 459 788 464 796 458 c 0
 805 450 805 435 801 424 c 0
 798 414 787 410 777 408 c 0
 765 404 752 405 739 406 c 0
 721 406 702 406 684 405 c 0
 670 405 658 398 645 396 c 0
 636 395 626 396 618 401 c 0
 610 408 609 422 615 431 c 0
686 488 m 0
 695 490 703 491 712 490 c 0
 725 489 738 481 739 467 c 0
 740 445 728 427 718 409 c 0
 710 391 701 373 691 356 c 0
 683 345 682 331 674 321 c 0
 665 312 651 309 639 311 c 0
 629 311 623 322 628 331 c 0
 630 341 637 349 643 358 c 0
 655 385 659 416 663 445 c 0
 665 455 660 465 662 475 c 0
 666 484 677 486 686 488 c 0
94 203 m 1
 111 200 128 198 146 199 c 0
 275 205 401 236 526 267 c 1
 584 275 636 292 692 293 c 1
 739 301 780 295 820 318 c 1
 837 358 889 354 904 315 c 1
 920 296 952 241 911 236 c 0
 874 234 849 271 814 274 c 0
 780 273 747 259 713 262 c 1
 665 255 619 246 563 235 c 0
 507 228 463 206 412 200 c 0
 333 185 252 165 181 126 c 1
 162 103 131 84 109 116 c 1
 98 143 65 178 94 203 c 1
273 63 m 0
 275 65 277 65 279 66 c 0
 369 86 460 100 549 122 c 0
 598 131 641 158 689 170 c 0
 713 180 741 171 749 145 c 0
 757 126 772 97 752 81 c 1
 733 76 716 91 701 102 c 0
 686 114 668 123 648 118 c 0
 588 109 531 86 472 70 c 0
 426 59 383 39 340 19 c 0
 321 12 301 -2 280 1 c 0
 253 10 260 45 273 63 c 0
500 545 m 1
 500 545 l 1
 520 554 545 553 563 540 c 0
 592 516 586 476 584 443 c 0
 583 388 586 332 585 277 c 0
 583 154 599 30 584 -93 c 0
 576 -124 566 -154 560 -187 c 1
 542 -223 538 -184 531 -159 c 0
 518 -103 506 -47 502 11 c 0
 494 164 485 316 484 469 c 0
 484 494 474 529 500 545 c 1
EndSplineSet
EndChar

StartChar: uni90CE
Encoding: 37070 37070 49
Width: 1024
VWidth: 0
Flags: HW
LayerCount: 2
Fore
SplineSet
335 811 m 1
 364 812 390 797 390 765 c 0
 390 737 368 717 356 693 c 0
 345 673 325 661 304 654 c 0
 289 650 262 637 255 657 c 1
 257 668 267 675 272 685 c 0
 279 710 272 736 272 761 c 1
 278 785 314 802 335 811 c 1
167 639 m 0
 199 624 199 598 203 565 c 1
 173 431 197 291 188 156 c 0
 185 137 198 116 191 98 c 0
 182 78 153 78 141 96 c 0
 120 122 128 156 130 186 c 0
 133 325 146 465 132 603 c 0
 128 622 147 644 167 639 c 0
184 646 m 0
 237 670 306 665 360 687 c 1
 386 691 407 695 432 703 c 1
 475 697 498 678 524 646 c 1
 523 601 520 556 514 511 c 0
 507 470 496 431 498 387 c 1
 491 362 476 332 447 331 c 0
 423 330 415 358 412 377 c 0
 405 420 415 462 422 504 c 0
 430 542 434 581 438 619 c 0
 442 637 430 662 409 660 c 0
 387 654 368 652 348 642 c 0
 297 624 241 610 188 602 c 0
 161 603 159 639 184 646 c 0
173 492 m 1
 200 514 277 522 310 532 c 1
 329 527 339 502 319 491 c 0
 288 473 253 472 219 463 c 0
 199 457 163 464 173 492 c 1
168 348 m 1
 198 354 355 380 425 385 c 1
 437 378 440 361 431 350 c 1
 375 337 238 298 194 291 c 1
 170 296 167 327 168 348 c 1
115 92 m 0
 122 90 128 85 135 83 c 0
 229 102 264 146 330 159 c 1
 359 171 364 168 353 139 c 1
 274 75 182 20 113 -38 c 0
 97 -46 90 -28 94 -15 c 1
 91 12 88 38 90 65 c 0
 87 79 97 102 115 92 c 0
420 239 m 1
 409 271 428 299 460 306 c 1
 497 273 510 244 514 209 c 1
 507 191 491 174 470 174 c 0
 436 179 436 215 420 239 c 1
561 656 m 1
 548 706 606 700 637 685 c 1
 664 656 658 613 656 577 c 0
 655 342 669 104 624 -127 c 1
 614 -145 598 -217 592 -190 c 0
 535 72 577 393 561 656 c 1
808 722 m 0
 788 706 758 696 726 675 c 0
 709 665 691 655 672 649 c 0
 654 648 631 645 625 665 c 1
 630 674 635 683 640 692 c 1
 699 712 760 724 819 743 c 1
 832 737 833 741 808 722 c 0
902 725 m 0
 917 711 918 683 920 663 c 1
 872 581 780 526 708 466 c 1
 711 523 797 665 813 704 c 0
 821 723 839 747 855 749 c 0
 871 751 894 732 902 725 c 0
748 418 m 0
 777 423 805 403 828 388 c 0
 885 343 923 289 948 214 c 1
 931 176 908 138 888 109 c 1
 871 99 847 96 829 106 c 0
 818 116 825 136 809 144 c 0
 781 167 759 180 722 209 c 1
 715 225 733 232 745 225 c 1
 780 222 812 201 848 203 c 0
 867 201 868 225 861 237 c 0
 835 298 784 340 741 389 c 0
 730 398 733 416 748 418 c 0
EndSplineSet
EndChar

StartChar: uni90ED
Encoding: 37101 37101 50
Width: 1024
VWidth: 0
Flags: HW
LayerCount: 2
Fore
SplineSet
281 432 m 1
 276 418 l 1
305 763 m 1
 307 785 314 790 333 803 c 1
 366 791 390 771 414 744 c 1
 413 713 409 674 375 666 c 1
 344 694 322 724 305 763 c 1
152 638 m 1
 186 649 221 660 255 671 c 0
 321 689 388 704 454 721 c 0
 471 724 487 730 501 739 c 0
 514 746 529 741 543 742 c 1
 558 729 595 701 562 685 c 0
 553 679 543 679 533 683 c 0
 515 689 497 688 479 688 c 0
 386 669 291 655 206 612 c 0
 193 607 180 597 165 604 c 1
 146 603 144 625 152 638 c 1
230 610 m 1
 240 616 244 618 254 609 c 0
 288 585 293 557 293 517 c 0
 290 440 285 365 264 290 c 0
 260 279 262 262 248 257 c 1
 245 263 242 270 239 276 c 0
 239 374 240 472 238 570 c 0
 239 584 234 597 230 610 c 1
445 672 m 1
 474 670 481 666 492 638 c 1
 493 602 493 566 494 530 c 1
 486 469 471 409 460 349 c 0
 454 325 423 311 401 324 c 0
 401 329 401 334 401 339 c 0
 407 440 416 542 423 643 c 0
 426 656 434 665 445 672 c 1
281 561 m 1
 281 561 l 1
 304 572 326 583 349 594 c 1
 373 598 413 615 432 599 c 0
 435 593 436 586 438 580 c 1
 399 552 349 550 304 534 c 0
 293 532 282 534 277 545 c 0
 278 550 280 556 281 561 c 1
362 415 m 0
 334 411 305 404 277 413 c 1
 277 419 277 424 277 430 c 0
 298 447 321 456 348 463 c 0
 375 468 397 474 420 456 c 1
 420 448 420 441 420 433 c 1
 401 427 381 421 362 415 c 0
199 249 m 1
 278 279 359 306 435 343 c 0
 448 350 461 357 474 348 c 0
 492 340 508 328 525 318 c 1
 526 312 526 305 527 299 c 1
 484 278 449 243 410 216 c 0
 399 208 383 208 370 203 c 1
 368 208 367 214 365 219 c 0
 383 244 402 269 420 294 c 0
 427 300 425 307 419 313 c 1
 403 302 386 291 370 280 c 0
 332 262 293 245 255 228 c 1
 238 211 223 194 206 177 c 1
 169 186 181 222 199 249 c 1
131 22 m 1
 242 84 353 147 468 200 c 1
 471 195 473 191 476 186 c 1
 393 124 309 63 228 -1 c 0
 213 -14 197 -28 176 -29 c 1
 160 -35 143 -35 130 -22 c 1
 125 -8 129 8 131 22 c 1
359 228 m 1
 376 224 392 223 403 208 c 0
 430 182 436 145 439 109 c 1
 432 35 429 -39 389 -103 c 0
 373 -129 354 -152 337 -177 c 1
 330 -175 323 -172 316 -170 c 0
 302 -145 287 -122 273 -97 c 0
 270 -90 259 -80 269 -74 c 1
 286 -82 306 -95 325 -92 c 1
 333 -75 342 -58 350 -41 c 0
 358 -2 364 37 372 76 c 1
 374 117 385 162 351 190 c 0
 336 204 344 219 359 228 c 1
576 576 m 0
 591 611 636 590 655 570 c 1
 665 416 662 230 659 70 c 0
 654 2 645 -65 629 -132 c 0
 626 -139 632 -156 620 -153 c 1
 608 -157 608 -143 603 -135 c 0
 596 -81 591 -27 585 27 c 1
 583 200 588 374 579 546 c 0
 579 556 571 567 576 576 c 0
673 610 m 1
 714 622 757 633 798 645 c 0
 817 653 835 665 853 675 c 1
 881 675 906 663 919 638 c 0
 927 625 923 608 926 594 c 1
 862 510 800 426 733 345 c 1
 727 347 720 349 714 351 c 1
 716 358 717 366 719 373 c 0
 757 448 797 523 834 599 c 0
 836 611 845 628 827 632 c 1
 812 621 796 609 781 598 c 1
 747 586 706 561 673 587 c 1
 673 595 673 602 673 610 c 1
762 338 m 1
 803 327 831 317 857 281 c 0
 881 255 907 232 928 204 c 0
 950 172 943 135 932 100 c 0
 924 69 895 49 865 43 c 1
 841 58 827 72 817 100 c 1
 784 112 752 123 719 135 c 1
 722 141 726 147 729 153 c 1
 774 157 819 161 864 165 c 1
 865 171 864 176 865 182 c 0
 863 187 859 190 856 195 c 0
 841 219 818 237 798 257 c 0
 784 268 778 283 771 298 c 0
 766 310 751 325 762 338 c 1
EndSplineSet
EndChar

StartChar: uni9580
Encoding: 38272 38272 51
Width: 1024
VWidth: 0
Flags: HW
LayerCount: 2
Fore
SplineSet
119 633 m 0
 119 657 141 655 158 650 c 0
 194 628 219 599 224 558 c 1
 220 545 212 532 207 519 c 0
 205 487 208 454 208 422 c 0
 206 331 207 241 201 150 c 0
 197 88 195 26 195 -37 c 0
 195 -61 190 -113 166 -124 c 1
 132 -123 92 -118 106 -77 c 1
 115 51 123 178 133 306 c 0
 143 414 122 525 119 633 c 0
210 747 m 0
 210 747 l 2
 213 749 215 750 218 752 c 0
 232 757 247 755 262 757 c 0
 305 770 332 782 375 785 c 1
 385 775 404 762 404 755 c 0
 403 726 400 705 394 676 c 0
 392 621 392 566 391 511 c 0
 388 485 378 458 364 436 c 1
 336 434 330 434 323 464 c 1
 320 535 327 606 330 677 c 0
 330 694 339 714 326 729 c 1
 311 724 297 720 283 715 c 0
 260 702 234 691 217 717 c 0
 208 724 211 737 210 747 c 0
236 622 m 1
 242 643 253 647 273 640 c 0
 293 633 314 634 335 634 c 0
 351 634 357 620 356 605 c 1
 349 595 346 584 338 575 c 1
 279 584 264 563 236 622 c 1
592 781 m 1
 600 775 608 770 616 764 c 0
 623 754 630 741 635 730 c 1
 633 706 629 683 629 659 c 0
 626 600 625 540 629 481 c 0
 632 467 627 453 620 442 c 1
 601 448 582 453 564 461 c 1
 564 475 564 488 564 502 c 0
 565 573 567 643 564 714 c 0
 562 729 569 743 572 758 c 0
 573 769 585 773 592 781 c 1
606 764 m 0
 608 765 609 767 611 768 c 0
 642 779 680 768 712 782 c 1
 750 790 789 798 828 800 c 0
 862 799 881 761 892 736 c 1
 899 632 896 528 900 424 c 0
 899 282 896 141 880 -0 c 0
 872 -41 871 -85 856 -125 c 1
 840 -149 838 -190 803 -193 c 1
 765 -179 750 -141 739 -105 c 0
 731 -76 701 -60 690 -33 c 1
 699 -8 773 -83 775 -24 c 0
 781 208 791 440 799 672 c 0
 801 698 800 747 770 750 c 1
 737 732 700 726 663 722 c 1
 633 707 581 727 606 764 c 0
621 658 m 0
 623 658 624 659 626 659 c 0
 659 662 688 671 719 665 c 0
 739 661 742 640 734 627 c 1
 711 613 684 612 660 599 c 1
 642 596 628 596 612 606 c 1
 609 626 611 640 621 658 c 0
612 487 m 1
 651 498 710 523 746 507 c 1
 724 476 688 464 663 436 c 1
 628 435 599 449 612 487 c 1
238 429 m 1
 257 437 278 440 298 445 c 0
 400 486 425 536 504 582 c 1
 459 465 383 439 320 365 c 0
 308 355 289 344 274 355 c 0
 257 377 223 400 238 429 c 1
EndSplineSet
EndChar

StartChar: uni99AC
Encoding: 39340 39340 52
Width: 1024
VWidth: 0
Flags: HW
LayerCount: 2
Fore
SplineSet
315 714 m 1
 315 714 l 1
 353 723 392 733 430 742 c 0
 483 756 535 771 588 785 c 1
 621 789 655 794 688 791 c 1
 697 773 706 759 701 739 c 1
 664 737 627 733 591 730 c 0
 499 711 405 684 313 676 c 1
 309 690 307 700 315 714 c 1
268 751 m 1
 304 748 319 728 327 694 c 1
 332 565 318 436 335 307 c 0
 340 246 351 218 294 191 c 1
 266 204 259 215 254 248 c 0
 245 394 258 542 258 688 c 0
 261 709 247 736 268 751 c 1
313 567 m 1
 354 576 395 586 435 598 c 0
 480 610 525 625 571 632 c 0
 589 634 606 640 624 640 c 0
 644 638 654 617 635 605 c 1
 600 593 563 589 527 581 c 0
 469 571 411 554 354 539 c 0
 344 538 328 532 320 539 c 0
 313 547 312 557 313 567 c 1
318 405 m 1
 333 409 348 414 363 418 c 0
 414 432 467 442 518 454 c 0
 552 459 580 483 614 488 c 0
 634 496 655 489 676 488 c 1
 682 482 688 476 694 470 c 0
 713 454 694 432 673 438 c 1
 656 436 640 445 624 442 c 0
 544 427 465 405 386 387 c 0
 364 383 340 372 319 380 c 0
 308 386 317 396 318 405 c 1
464 721 m 1
 490 722 515 724 530 697 c 0
 545 676 537 651 539 627 c 0
 539 533 535 440 531 346 c 0
 528 328 535 305 518 292 c 1
 509 294 501 297 492 299 c 1
 474 354 456 408 453 467 c 0
 449 533 449 599 447 665 c 0
 447 685 444 709 464 721 c 1
325 257 m 1
 418 300 523 305 622 325 c 1
 671 328 714 348 753 376 c 1
 813 396 865 336 879 283 c 1
 894 191 898 93 870 2 c 1
 841 -64 804 -135 737 -169 c 1
 700 -200 603 -215 596 -150 c 1
 644 -119 594 -86 576 -54 c 1
 599 -29 662 -118 696 -66 c 0
 740 -4 756 75 767 149 c 1
 763 195 784 272 730 294 c 1
 641 280 552 267 463 253 c 0
 423 250 337 200 325 257 c 1
28 157 m 1
 91 156 156 151 181 83 c 1
 185 57 186 25 166 5 c 1
 112 -21 85 49 67 87 c 0
 54 109 10 128 28 157 c 1
282 190 m 1
 316 169 339 141 358 105 c 1
 358 82 362 37 330 36 c 1
 282 47 254 96 249 143 c 1
 256 160 263 183 282 190 c 1
388 200 m 1
 403 205 417 210 432 215 c 1
 483 199 525 163 522 105 c 0
 524 70 487 78 470 95 c 0
 451 115 438 138 420 159 c 0
 409 174 381 177 388 200 c 1
579 186 m 0
 578 191 578 195 577 200 c 0
 617 219 655 214 697 202 c 1
 715 177 726 159 718 127 c 1
 705 101 669 95 650 119 c 0
 630 145 606 168 579 186 c 0
EndSplineSet
EndChar

StartChar: uni537F
Encoding: 21375 21375 53
Width: 1024
VWidth: 0
Flags: HW
LayerCount: 2
Fore
SplineSet
283 771 m 1
 312 766 328 755 346 730 c 0
 358 721 346 706 337 699 c 0
 312 666 290 629 269 593 c 0
 244 551 221 509 200 466 c 1
 207 455 211 441 223 435 c 0
 235 426 255 419 247 401 c 1
 223 401 199 400 175 397 c 1
 162 379 152 365 129 361 c 1
 115 352 91 363 98 382 c 0
 101 400 113 415 116 433 c 1
 130 443 144 453 158 463 c 1
 191 537 225 611 258 685 c 0
 266 700 272 716 272 733 c 0
 272 747 268 763 283 771 c 1
281 599 m 1
 294 602 308 597 316 586 c 0
 334 556 337 518 334 483 c 0
 303 286 239 124 102 -41 c 1
 46 -93 49 -73 60 -48 c 0
 159 113 273 296 281 486 c 1
 277 507 283 533 267 549 c 0
 252 566 248 608 281 599 c 1
382 708 m 1
 382 708 l 1
 413 704 434 693 436 657 c 0
 436 611 436 566 434 520 c 0
 428 427 423 333 421 240 c 0
 419 225 413 181 392 202 c 0
 382 206 378 214 378 225 c 0
 373 245 371 266 373 287 c 0
 379 404 380 522 382 640 c 0
 386 663 367 688 382 708 c 1
421 571 m 1
 445 582 468 599 496 600 c 0
 520 600 519 568 503 557 c 0
 486 548 467 542 449 535 c 0
 427 523 405 553 421 571 c 1
412 700 m 1
 481 712 548 732 615 751 c 0
 635 758 649 736 661 723 c 0
 667 712 678 702 673 689 c 1
 674 669 657 657 647 642 c 1
 643 613 637 584 633 554 c 0
 627 510 630 463 618 420 c 1
 607 409 597 391 580 399 c 1
 560 397 568 419 564 432 c 0
 566 510 579 593 584 671 c 0
 587 690 597 733 564 722 c 1
 523 700 483 675 440 658 c 1
 415 654 401 679 412 700 c 1
417 414 m 1
 438 420 458 426 479 432 c 0
 508 439 537 453 568 448 c 0
 585 443 598 408 574 405 c 1
 559 392 542 405 526 408 c 1
 494 402 461 399 431 386 c 1
 426 389 420 394 415 397 c 1
 416 403 416 408 417 414 c 1
316 160 m 1
 373 188 427 221 484 250 c 1
 512 256 551 293 574 264 c 1
 517 221 459 180 403 136 c 0
 381 124 369 98 343 92 c 1
 313 93 293 138 316 160 c 1
579 371 m 1
 626 369 656 337 669 292 c 1
 691 245 624 230 603 267 c 0
 591 299 553 338 579 371 c 1
689 470 m 1
 689 470 l 1
 693 470 l 1
 735 482 757 448 769 412 c 1
 766 289 765 165 767 42 c 1
 763 -12 764 -67 748 -119 c 1
 726 -173 722 -174 711 -129 c 0
 710 -109 709 -90 708 -70 c 0
 702 10 700 90 699 170 c 0
 697 239 699 308 694 377 c 1
 698 410 666 443 689 470 c 1
727 461 m 1
 727 461 l 1
 764 471 803 474 841 478 c 0
 859 481 881 476 889 496 c 0
 899 520 927 513 942 497 c 1
 966 485 968 455 981 434 c 1
 967 359 946 275 898 214 c 1
 879 201 842 184 832 215 c 1
 830 243 808 262 782 270 c 0
 759 278 771 299 792 290 c 1
 817 292 860 274 863 312 c 1
 872 349 891 385 887 424 c 1
 894 443 879 445 865 449 c 1
 830 438 795 425 760 415 c 0
 732 403 710 439 727 461 c 1
EndSplineSet
EndChar

StartChar: uni540D
Encoding: 21517 21517 54
Width: 1024
VWidth: 0
Flags: HW
LayerCount: 2
Fore
SplineSet
382 698 m 1
 417 710 457 689 472 656 c 0
 478 644 475 631 476 618 c 1
 423 560 362 510 305 456 c 1
 281 450 247 435 228 436 c 1
 222 446 241 453 247 461 c 0
 293 499 327 548 363 595 c 1
 368 629 371 665 382 698 c 1
493 678 m 1
 581 698 671 707 758 731 c 1
 791 749 838 717 835 680 c 1
 821 650 782 647 754 635 c 1
 719 605 698 563 672 526 c 0
 590 419 498 320 406 222 c 1
 322 143 237 66 145 -4 c 0
 123 -16 93 -56 69 -32 c 1
 92 3 128 26 155 59 c 0
 271 189 394 312 511 441 c 0
 575 508 631 583 686 656 c 1
 658 679 613 638 577 644 c 1
 546 631 495 636 493 678 c 1
342 501 m 0
 386 497 435 500 472 474 c 1
 478 449 486 424 495 399 c 1
 486 393 476 386 467 380 c 1
 406 396 365 438 328 489 c 1
 333 493 337 497 342 501 c 0
377 119 m 1
 366 169 418 186 453 155 c 1
 479 119 487 75 495 32 c 0
 499 -3 507 -38 507 -73 c 0
 499 -137 437 -146 426 -85 c 1
 420 -15 404 54 377 119 c 1
533 181 m 1
 618 214 675 241 773 239 c 0
 797 234 796 261 803 276 c 1
 862 287 894 241 915 194 c 1
 917 129 876 4 838 -57 c 0
 823 -83 803 -106 783 -128 c 1
 738 -137 698 -106 698 -59 c 1
 723 20 759 96 772 179 c 1
 785 198 760 206 746 200 c 0
 707 195 665 175 644 141 c 0
 636 129 656 106 630 107 c 1
 599 127 547 147 533 181 c 1
495 -18 m 1
 495 -18 l 1
 545 9 593 24 651 18 c 1
 681 7 726 6 734 -24 c 0
 737 -37 721 -46 714 -57 c 1
 645 -68 563 -84 495 -67 c 1
 477 -49 480 -36 495 -18 c 1
EndSplineSet
EndChar

StartChar: uni540F
Encoding: 21519 21519 55
Width: 1024
VWidth: 0
Flags: HW
LayerCount: 2
Fore
SplineSet
225 605 m 1
 309 601 395 602 477 625 c 0
 540 640 600 667 663 680 c 1
 699 673 727 653 730 616 c 1
 725 594 701 602 684 599 c 0
 662 594 641 604 619 607 c 1
 552 593 484 579 418 563 c 0
 376 550 333 542 292 524 c 0
 251 509 223 558 211 590 c 1
 216 595 220 600 225 605 c 1
410 760 m 1
 436 757 461 754 487 751 c 0
 502 753 503 735 511 726 c 1
 514 586 523 444 499 305 c 1
 480 241 451 182 413 127 c 0
 330 4 221 -92 82 -148 c 1
 69 -159 60 -147 51 -138 c 1
 238 -5 352 85 423 323 c 1
 438 458 452 596 410 728 c 0
 403 740 395 751 410 760 c 1
224 473 m 1
 258 480 286 490 318 473 c 1
 331 454 344 438 346 414 c 0
 351 401 345 387 342 374 c 0
 347 339 357 301 356 266 c 1
 349 251 333 242 319 254 c 1
 296 302 299 355 274 402 c 0
 264 429 231 426 217 450 c 1
 219 458 222 465 224 473 c 1
347 456 m 0
 361 457 376 456 390 457 c 0
 470 476 551 497 631 517 c 0
 648 523 658 541 671 553 c 1
 694 546 713 539 728 518 c 1
 730 476 710 444 692 407 c 1
 663 368 633 326 599 293 c 1
 574 284 538 280 532 315 c 1
 543 381 580 427 615 480 c 1
 537 459 458 443 378 428 c 1
 369 416 349 405 337 419 c 0
 324 430 333 450 347 456 c 0
345 304 m 1
 402 326 461 341 521 349 c 1
 537 337 545 332 544 311 c 1
 481 293 415 288 354 266 c 1
 343 281 335 287 345 304 c 1
129 315 m 0
 131 339 136 348 158 360 c 0
 189 383 225 367 255 351 c 1
 284 315 319 283 353 251 c 1
 457 181 563 119 681 76 c 1
 745 46 813 24 879 0 c 0
 916 -10 948 -31 981 -49 c 1
 1008 -58 1012 -70 990 -77 c 1
 970 -77 950 -78 930 -76 c 0
 886 -73 855 -92 802 -115 c 0
 784 -118 767 -122 749 -122 c 1
 689 -101 625 -68 565 -38 c 1
 503 3 435 41 387 98 c 0
 327 171 274 258 198 314 c 0
 190 323 170 319 172 305 c 1
 165 273 131 289 129 315 c 0
EndSplineSet
EndChar

StartChar: uni548C
Encoding: 21644 21644 56
Width: 1024
VWidth: 0
Flags: HW
LayerCount: 2
Fore
SplineSet
374 705 m 1
 409 702 429 684 439 648 c 1
 439 619 412 616 389 620 c 1
 366 618 343 615 321 607 c 0
 277 584 230 568 191 538 c 1
 167 529 181 563 195 567 c 1
 253 614 314 661 374 705 c 1
305 606 m 0
 305 606 l 1
 334 596 360 576 380 553 c 1
 384 528 370 503 375 477 c 0
 382 387 371 295 390 206 c 1
 396 144 404 81 402 18 c 0
 404 -26 383 -71 347 -95 c 0
 314 -122 320 -61 300 -49 c 0
 282 -35 274 -13 260 4 c 1
 278 0 309 -13 325 7 c 1
 334 136 321 266 317 395 c 0
 313 436 316 478 311 519 c 0
 309 548 294 577 305 606 c 0
116 358 m 1
 130 367 144 377 159 386 c 0
 254 430 352 462 448 501 c 0
 476 509 502 495 512 468 c 0
 526 428 476 449 456 452 c 0
 411 452 369 430 327 416 c 0
 276 403 232 374 185 351 c 0
 164 339 129 332 116 358 c 1
332 432 m 1
 354 438 356 438 359 414 c 1
 305 307 249 202 174 108 c 0
 159 93 143 79 128 65 c 0
 111 54 117 93 120 102 c 0
 176 184 228 268 272 357 c 0
 287 386 308 411 332 432 c 1
367 308 m 0
 367 309 367 309 367 310 c 0
 398 338 449 335 476 301 c 0
 485 282 482 252 479 233 c 0
 474 223 464 215 453 217 c 1
 423 240 373 267 367 308 c 0
541 414 m 1
 569 410 615 410 623 375 c 1
 635 350 630 328 636 297 c 0
 649 255 663 213 664 169 c 1
 670 134 629 124 610 150 c 0
 579 199 560 294 547 343 c 0
 538 367 521 392 541 414 c 1
727 442 m 0
 764 452 800 465 838 467 c 0
 851 472 873 477 866 496 c 0
 854 515 881 520 894 511 c 0
 919 482 958 450 976 412 c 0
 983 391 969 375 963 357 c 0
 952 319 907 185 882 151 c 1
 864 152 842 149 828 162 c 1
 805 204 806 259 820 304 c 0
 830 329 832 357 842 382 c 0
 850 393 859 423 835 418 c 0
 802 416 773 402 741 398 c 1
 728 405 706 413 711 432 c 0
 716 435 722 439 727 442 c 0
642 241 m 1
 663 255 687 261 711 267 c 0
 773 278 834 259 890 234 c 0
 916 221 922 220 892 197 c 1
 810 193 722 176 641 193 c 1
 628 205 636 226 642 241 c 1
EndSplineSet
EndChar

StartChar: uni592D
Encoding: 22829 22829 57
Width: 1024
VWidth: 0
Flags: HW
LayerCount: 2
Fore
SplineSet
286 529 m 1
 334 577 397 610 440 664 c 1
 483 677 531 634 521 590 c 0
 515 580 502 583 492 583 c 0
 427 566 362 533 297 514 c 0
 286 513 285 519 286 529 c 1
135 287 m 1
 92 307 130 329 159 323 c 0
 221 318 280 343 337 363 c 0
 423 391 511 414 600 434 c 0
 651 446 703 451 755 460 c 0
 781 466 804 445 805 419 c 1
 811 394 788 374 764 372 c 0
 708 370 651 368 595 372 c 0
 480 375 372 331 274 274 c 0
 247 262 223 245 194 238 c 0
 160 230 158 264 135 287 c 1
424 519 m 1
 456 523 477 491 483 463 c 0
 497 387 480 310 465 235 c 0
 449 182 439 128 415 78 c 0
 395 32 362 -6 323 -37 c 0
 289 -62 266 -89 222 -102 c 0
 180 -110 153 -123 196 -84 c 1
 277 -25 325 63 359 155 c 0
 384 226 402 300 414 374 c 0
 420 410 417 447 407 482 c 1
 392 499 397 527 424 519 c 1
473 376 m 1
 509 385 527 332 548 312 c 0
 644 194 772 100 893 9 c 0
 918 -12 954 -30 976 -36 c 0
 1013 -54 973 -55 954 -59 c 1
 909 -49 860 -51 808 -65 c 1
 770 -67 760 -49 726 -29 c 1
 647 41 574 117 520 207 c 0
 499 236 489 272 465 299 c 0
 447 321 445 362 473 376 c 1
EndSplineSet
EndChar

StartChar: uni624C
Encoding: 25164 25164 58
Width: 1024
VWidth: 0
Flags: HW
LayerCount: 2
Fore
SplineSet
379 578 m 1
 379 578 l 1
105 559 m 0
 106 560 107 560 108 561 c 0
 179 595 256 615 323 658 c 1
 331 656 338 654 346 652 c 0
 360 650 360 628 357 618 c 1
 304 573 249 523 185 487 c 1
 158 506 124 517 100 540 c 0
 92 547 102 553 105 559 c 0
187 739 m 1
 233 780 286 735 290 684 c 0
 288 670 279 657 281 642 c 0
 273 464 265 287 275 109 c 0
 278 38 272 -34 270 -105 c 1
 264 -127 260 -168 230 -167 c 1
 190 -146 198 -103 185 -66 c 0
 178 -40 147 -21 150 4 c 1
 162 -2 175 -9 188 -13 c 0
 201 -22 208 -16 210 -1 c 0
 214 218 197 436 203 655 c 0
 204 684 191 711 187 739 c 1
65 230 m 1
 151 303 229 384 316 456 c 0
 332 466 331 446 330 436 c 1
 251 354 185 263 117 172 c 0
 111 162 97 147 86 159 c 0
 69 177 54 205 65 230 c 1
609 303 m 1
 609 303 l 1
EndSplineSet
EndChar

StartChar: uni660C
Encoding: 26124 26124 59
Width: 1024
VWidth: 0
Flags: HW
LayerCount: 2
Fore
SplineSet
222 702 m 1
 222 702 l 1
233 659 m 0
 229 668 225 675 221 684 c 0
 216 691 218 696 228 695 c 0
 244 691 259 686 274 681 c 0
 284 679 295 673 301 666 c 1
 301 655 299 643 301 632 c 0
 321 563 339 492 357 422 c 0
 361 403 367 386 375 369 c 1
 371 361 367 355 363 347 c 1
 357 347 351 345 345 345 c 0
 333 346 320 355 317 367 c 0
 311 386 297 403 290 425 c 0
 283 472 275 513 268 560 c 1
 257 593 245 626 233 659 c 0
395 713 m 0
 403 713 410 711 418 711 c 0
 460 714 501 723 543 729 c 1
 566 739 605 727 619 750 c 0
 622 762 631 765 643 763 c 0
 667 761 693 749 709 731 c 0
 727 713 744 695 748 669 c 1
 718 583 694 495 667 408 c 0
 663 385 645 357 618 360 c 1
 589 358 567 381 560 408 c 1
 580 489 599 568 619 649 c 0
 621 662 629 676 625 688 c 1
 593 693 560 682 529 676 c 0
 496 667 461 665 432 645 c 0
 409 634 383 609 359 634 c 1
 358 660 361 713 395 713 c 0
332 544 m 0
 351 564 382 567 407 578 c 0
 451 597 485 606 520 591 c 0
 528 588 537 579 536 570 c 0
 534 553 515 539 497 535 c 0
 446 525 383 513 323 523 c 1
 321 530 327 539 332 544 c 0
348 417 m 0
 353 421 358 425 363 429 c 0
 420 438 477 448 534 457 c 1
 541 453 548 448 555 444 c 1
 556 429 556 414 557 399 c 1
 546 393 535 388 524 382 c 1
 487 379 449 376 412 373 c 0
 403 373 392 371 383 372 c 0
 369 377 353 381 342 392 c 1
 344 400 346 409 348 417 c 0
186 322 m 1
 196 321 208 323 217 319 c 0
 243 309 279 276 257 249 c 1
 247 225 258 200 266 177 c 0
 291 112 305 43 322 -24 c 0
 330 -49 332 -75 325 -101 c 1
 317 -106 310 -111 302 -116 c 0
 286 -130 268 -106 259 -93 c 1
 257 -54 248 -15 242 24 c 0
 228 102 215 182 200 260 c 1
 190 279 177 300 186 322 c 1
372 239 m 0
 386 244 401 249 415 254 c 0
 458 268 499 287 543 297 c 0
 593 311 644 315 695 322 c 0
 716 326 741 319 750 298 c 1
 748 290 745 283 743 275 c 1
 697 270 652 262 606 255 c 1
 554 233 502 210 450 187 c 0
 429 179 412 155 387 163 c 1
 374 160 369 172 362 180 c 0
 349 190 353 206 353 221 c 1
 359 227 366 233 372 239 c 0
302 86 m 0
 308 89 313 93 319 96 c 0
 379 108 440 119 500 132 c 0
 518 135 536 143 554 136 c 0
 573 131 595 131 607 113 c 1
 603 107 599 100 595 94 c 0
 576 87 556 81 537 74 c 0
 499 64 460 59 421 51 c 0
 386 47 350 47 314 45 c 1
 295 38 284 53 285 70 c 1
 291 75 296 81 302 86 c 0
285 -78 m 1
 372 -59 459 -36 547 -22 c 0
 575 -20 604 -5 632 -16 c 0
 657 -23 669 -55 663 -80 c 1
 652 -83 641 -87 630 -90 c 0
 610 -94 590 -89 570 -89 c 0
 498 -92 427 -109 356 -120 c 0
 338 -121 321 -131 304 -123 c 0
 284 -117 276 -97 285 -78 c 1
739 404 m 1
 765 403 788 387 811 376 c 1
 817 365 824 354 830 343 c 0
 840 328 848 311 842 292 c 0
 823 208 803 125 784 41 c 0
 777 -1 760 -40 743 -79 c 0
 736 -107 713 -124 695 -145 c 1
 673 -144 637 -150 618 -135 c 1
 621 -82 647 -33 665 16 c 0
 687 82 701 150 720 217 c 1
 725 255 723 294 725 332 c 0
 731 356 711 390 739 404 c 1
EndSplineSet
EndChar

StartChar: uni660E
Encoding: 26126 26126 60
Width: 1024
VWidth: 0
Flags: HW
LayerCount: 2
Fore
SplineSet
616 594 m 1
 647 601 668 592 673 556 c 0
 679 515 676 473 676 432 c 0
 679 340 659 250 637 162 c 0
 616 78 578 -22 511 -80 c 1
 495 -88 470 -97 455 -92 c 1
 570 31 576 204 600 363 c 1
 614 440 601 518 616 594 c 1
621 665 m 1
 668 685 721 677 770 681 c 1
 805 682 838 692 871 704 c 1
 912 711 938 662 949 629 c 1
 941 399 945 142 888 -80 c 0
 883 -101 864 -150 842 -114 c 1
 824 -71 776 -38 773 8 c 1
 782 -6 829 -8 835 11 c 1
 842 88 844 165 847 242 c 0
 850 347 880 531 824 621 c 1
 780 608 736 594 690 588 c 0
 658 583 613 536 587 574 c 1
 573 607 594 646 621 665 c 1
666 445 m 1
 699 451 721 475 768 468 c 1
 780 457 804 427 784 414 c 1
 718 407 708 412 666 445 c 1
650 291 m 1
 699 303 740 304 777 293 c 1
 802 273 788 247 764 242 c 1
 730 242 699 249 645 268 c 1
 647 276 648 283 650 291 c 1
131 489 m 0
 128 498 126 508 123 517 c 1
 119 525 121 530 128 529 c 1
 139 525 149 519 160 514 c 1
 167 512 174 505 178 497 c 1
 178 484 178 471 179 459 c 0
 193 383 204 306 217 229 c 0
 220 209 224 190 230 171 c 1
 227 163 225 154 222 146 c 1
 218 145 213 146 209 145 c 1
 201 146 192 156 190 169 c 0
 186 190 176 208 171 232 c 1
 166 284 161 329 156 381 c 1
 148 417 139 453 131 489 c 0
193 548 m 0
 198 548 204 547 209 547 c 1
 237 550 315 560 343 566 c 1
 358 577 385 564 394 589 c 1
 396 603 402 606 410 603 c 1
 426 601 444 589 455 569 c 1
 467 550 478 528 481 500 c 1
 461 405 444 309 426 213 c 1
 423 187 411 157 393 160 c 1
 374 158 358 184 354 213 c 1
 367 301 381 391 394 479 c 1
 395 493 400 508 398 521 c 1
 376 526 354 514 333 507 c 1
 311 498 237 496 218 474 c 1
 203 462 185 433 169 461 c 1
 169 490 170 548 193 548 c 0
200 365 m 0
 213 382 234 386 252 395 c 0
 283 411 307 419 331 406 c 0
 337 403 343 396 342 388 c 0
 341 373 327 360 315 357 c 0
 279 349 236 339 194 347 c 1
 193 353 196 360 200 365 c 0
211 223 m 1
 215 227 218 232 222 236 c 1
 262 246 300 257 340 267 c 1
 345 263 350 257 355 253 c 1
 355 236 356 221 356 204 c 1
 348 198 341 191 333 185 c 1
 307 182 281 178 255 175 c 0
 248 175 243 172 236 174 c 1
 226 179 215 184 207 196 c 1
 208 205 210 214 211 223 c 1
EndSplineSet
EndChar

StartChar: uni805E
Encoding: 32862 32862 61
Width: 1024
VWidth: 0
Flags: HW
LayerCount: 2
Fore
SplineSet
119 633 m 0
 119 657 141 655 158 650 c 0
 194 628 219 599 224 558 c 1
 220 545 212 532 207 519 c 0
 205 487 208 454 208 422 c 0
 206 331 207 241 201 150 c 0
 197 88 195 26 195 -37 c 0
 195 -61 190 -113 166 -124 c 1
 132 -123 92 -118 106 -77 c 1
 115 51 123 178 133 306 c 0
 143 414 122 525 119 633 c 0
210 747 m 0
 210 747 l 2
 213 749 215 750 218 752 c 0
 232 757 247 755 262 757 c 0
 305 770 332 782 375 785 c 1
 385 775 404 762 404 755 c 0
 403 726 400 705 394 676 c 0
 392 621 392 566 391 511 c 0
 388 485 378 458 364 436 c 1
 336 434 330 434 323 464 c 1
 320 535 327 606 330 677 c 0
 330 694 339 714 326 729 c 1
 311 724 297 720 283 715 c 0
 260 702 234 691 217 717 c 0
 208 724 211 737 210 747 c 0
236 622 m 1
 242 643 253 647 273 640 c 0
 293 633 314 634 335 634 c 0
 351 634 357 620 356 605 c 1
 349 595 346 584 338 575 c 1
 279 584 264 563 236 622 c 1
592 781 m 1
 600 775 608 770 616 764 c 0
 623 754 630 741 635 730 c 1
 633 706 629 683 629 659 c 0
 626 600 625 540 629 481 c 0
 632 467 627 453 620 442 c 1
 601 448 582 453 564 461 c 1
 564 475 564 488 564 502 c 0
 565 573 567 643 564 714 c 0
 562 729 569 743 572 758 c 0
 573 769 585 773 592 781 c 1
606 764 m 0
 608 765 609 767 611 768 c 0
 642 779 680 768 712 782 c 1
 750 790 789 798 828 800 c 0
 862 799 881 761 892 736 c 1
 899 632 896 528 900 424 c 0
 899 282 896 141 880 -0 c 0
 872 -41 871 -85 856 -125 c 1
 840 -149 838 -190 803 -193 c 1
 765 -179 750 -141 739 -105 c 0
 731 -76 701 -60 690 -33 c 1
 699 -8 773 -83 775 -24 c 0
 781 208 791 440 799 672 c 0
 801 698 800 747 770 750 c 1
 737 732 700 726 663 722 c 1
 633 707 581 727 606 764 c 0
621 658 m 0
 623 658 624 659 626 659 c 0
 659 662 688 671 719 665 c 0
 739 661 742 640 734 627 c 1
 711 613 684 612 660 599 c 1
 642 596 628 596 612 606 c 1
 609 626 611 640 621 658 c 0
612 487 m 1
 651 498 710 523 746 507 c 1
 724 476 688 464 663 436 c 1
 628 435 599 449 612 487 c 1
238 429 m 1
 257 437 278 440 298 445 c 0
 400 486 425 536 504 582 c 1
 459 465 383 439 320 365 c 0
 308 355 289 344 274 355 c 0
 257 377 223 400 238 429 c 1
373 403 m 1
 394 405 398 399 408 380 c 0
 416 367 408 351 410 337 c 0
 410 219 410 100 411 -18 c 1
 393 -29 383 -37 365 -20 c 1
 354 36 341 91 339 148 c 0
 338 221 333 298 343 370 c 0
 347 385 363 392 373 403 c 1
380 384 m 1
 394 401 406 414 428 421 c 0
 465 429 503 435 540 441 c 0
 566 441 593 445 618 438 c 0
 655 430 650 398 636 369 c 0
 617 311 621 251 617 191 c 0
 610 109 599 26 590 -56 c 0
 588 -83 584 -110 570 -133 c 0
 561 -143 557 -187 540 -168 c 1
 533 -137 526 -106 522 -75 c 0
 515 -38 515 0 515 38 c 0
 513 126 516 215 519 303 c 0
 518 322 527 346 508 358 c 1
 484 362 459 362 434 361 c 0
 413 356 382 356 380 384 c 1
377 294 m 1
 391 319 395 325 425 319 c 0
 443 314 460 307 477 301 c 1
 489 305 493 308 501 296 c 1
 498 288 494 280 491 272 c 0
 461 249 433 255 396 258 c 1
 387 269 379 279 377 294 c 1
386 130 m 1
 441 196 467 194 498 177 c 1
 496 132 458 128 386 130 c 1
286 -68 m 1
 295 -55 301 -47 317 -44 c 0
 338 -34 359 -22 380 -10 c 0
 416 10 451 34 489 50 c 0
 504 61 524 34 503 26 c 1
 467 -1 436 -31 406 -65 c 0
 389 -79 377 -97 365 -114 c 1
 347 -130 318 -112 303 -100 c 0
 292 -94 288 -80 286 -68 c 1
EndSplineSet
EndChar

StartChar: uni884C
Encoding: 34892 34892 62
Width: 1024
VWidth: 0
Flags: HW
LayerCount: 2
Fore
SplineSet
291 753 m 1
 345 749 366 717 374 655 c 1
 331 621 212 573 144 569 c 1
 144 575 144 580 144 586 c 0
 182 651 247 694 291 753 c 1
473 617 m 1
 531 621 582 655 634 677 c 1
 648 689 662 701 675 713 c 1
 693 713 708 712 723 701 c 1
 733 679 740 669 725 648 c 1
 713 644 701 641 689 637 c 0
 634 614 580 588 520 581 c 0
 506 579 469 569 467 589 c 0
 465 599 464 608 473 617 c 1
334 532 m 1
 379 524 418 471 413 425 c 1
 401 414 385 414 370 415 c 1
 298 363 163 234 82 221 c 1
 84 227 85 232 87 238 c 0
 155 312 222 387 290 461 c 0
 310 481 325 505 334 532 c 1
260 350 m 1
 278 345 296 340 303 320 c 0
 316 260 304 200 293 140 c 0
 284 89 282 36 292 -15 c 1
 275 -44 241 -79 217 -39 c 0
 197 -12 195 25 218 51 c 1
 232 134 235 218 244 301 c 0
 249 317 239 343 260 350 c 1
360 355 m 1
 444 394 543 384 630 413 c 1
 693 428 758 440 820 461 c 0
 845 467 868 477 891 488 c 1
 916 493 942 478 955 457 c 0
 964 446 963 434 953 425 c 1
 944 408 922 414 906 412 c 0
 879 409 853 421 827 419 c 1
 712 386 592 371 482 324 c 1
 455 318 430 298 402 304 c 1
 387 319 355 329 360 355 c 1
663 448 m 0
 673 449 682 451 692 447 c 0
 724 443 726 373 735 350 c 1
 749 271 752 190 759 110 c 1
 755 67 746 23 740 -20 c 1
 723 -86 724 -127 656 -146 c 1
 637 -157 601 -152 600 -126 c 1
 606 -102 608 -71 581 -59 c 1
 564 -41 536 -34 527 -10 c 1
 561 -22 594 -31 630 -18 c 0
 640 -16 636 -3 640 5 c 0
 662 142 660 253 641 390 c 0
 640 412 629 450 663 448 c 0
EndSplineSet
EndChar

StartChar: uni901A
Encoding: 36890 36890 63
Width: 1024
VWidth: 0
Flags: HW
LayerCount: 2
Fore
SplineSet
148 365 m 1
 159 397 186 418 220 424 c 0
 250 430 278 405 282 376 c 0
 282 338 236 313 234 273 c 1
 226 258 224 231 244 225 c 1
 263 224 284 236 303 227 c 1
 328 205 341 157 339 126 c 1
 296 97 241 82 196 58 c 1
 179 56 155 78 171 94 c 0
 187 105 209 102 222 118 c 0
 234 128 251 141 247 158 c 1
 222 174 185 191 190 227 c 0
 198 255 199 285 209 313 c 1
 225 320 221 356 200 344 c 1
 182 346 159 349 148 365 c 1
132 2 m 1
 114 -19 74 -38 54 0 c 1
 53 35 81 68 116 89 c 0
 146 106 176 81 202 69 c 1
 327 -21 526 -81 684 -86 c 0
 784 -88 890 -90 986 -61 c 1
 1014 -41 1011 -74 1000 -90 c 0
 974 -123 956 -136 928 -166 c 1
 867 -189 791 -182 727 -181 c 0
 540 -166 303 -121 172 24 c 1
 155 55 139 33 132 2 c 1
491 768 m 0
 492 767 l 2
 505 761 515 752 525 742 c 1
 587 756 651 769 708 796 c 1
 745 801 770 768 787 739 c 1
 792 716 803 679 791 660 c 1
 775 655 761 663 747 670 c 0
 683 681 648 638 598 615 c 1
 593 629 613 654 620 669 c 0
 635 688 644 711 654 733 c 1
 612 722 574 700 533 686 c 0
 518 678 502 664 502 645 c 0
 502 626 482 612 463 615 c 0
 418 616 415 649 421 687 c 1
 443 715 456 755 491 768 c 0
546 597 m 1
 543 626 539 634 604 620 c 1
 621 597 644 574 648 545 c 0
 646 534 613 523 596 534 c 0
 575 552 563 572 546 597 c 1
447 513 m 1
 466 500 485 486 492 464 c 0
 521 368 482 209 493 108 c 1
 490 64 491 20 486 -24 c 0
 483 -61 426 -60 418 -29 c 0
 415 -17 424 -8 432 0 c 1
 449 127 441 256 430 384 c 0
 427 419 413 491 447 513 c 1
466 490 m 1
 523 523 592 531 652 555 c 1
 693 565 738 567 779 554 c 1
 818 534 845 494 854 452 c 1
 854 339 854 226 857 113 c 1
 852 75 844 37 835 0 c 0
 829 -24 825 -50 799 -59 c 1
 780 -73 754 -74 731 -78 c 0
 703 -86 696 -56 678 -42 c 0
 658 -21 635 20 667 -1 c 1
 686 -7 729 -17 729 14 c 0
 740 118 750 222 753 326 c 1
 748 394 746 462 731 528 c 1
 694 539 656 524 620 514 c 0
 584 501 547 489 513 472 c 1
 495 450 464 462 466 490 c 1
486 348 m 1
 550 375 623 407 692 388 c 1
 707 375 697 345 675 343 c 0
 624 327 528 316 486 348 c 1
494 219 m 1
 566 234 631 267 703 282 c 1
 723 280 734 250 717 237 c 0
 657 204 552 177 494 219 c 1
588 499 m 0
 601 504 625 514 631 496 c 0
 636 484 644 473 647 460 c 0
 649 365 645 269 647 174 c 0
 644 154 611 -12 585 3 c 1
 581 38 584 74 581 109 c 0
 568 222 562 335 560 449 c 0
 559 469 565 495 588 499 c 0
215 664 m 1
 269 658 323 653 334 595 c 0
 331 585 323 565 320 555 c 1
 295 543 261 571 244 534 c 1
 231 561 249 555 229 579 c 1
 211 584 175 606 161 619 c 1
 166 648 183 649 215 664 c 1
EndSplineSet
EndChar

StartChar: uni961D
Encoding: 38429 38429 64
Width: 1024
VWidth: 0
Flags: HW
LayerCount: 2
Fore
SplineSet
145 679 m 1
 153 671 159 662 167 654 c 0
 189 639 179 612 180 589 c 0
 172 463 166 336 168 210 c 0
 170 131 168 52 179 -26 c 0
 185 -51 189 -82 159 -92 c 0
 139 -93 120 -59 111 -39 c 1
 110 42 107 124 104 205 c 0
 105 332 112 459 122 586 c 1
 130 616 115 658 145 679 c 1
158 641 m 0
 157 651 171 670 158 669 c 1
 211 686 264 706 317 725 c 0
 333 733 350 728 367 728 c 1
 382 713 400 698 393 674 c 0
 386 658 368 650 353 643 c 1
 335 612 317 581 299 550 c 0
 288 532 274 520 259 538 c 1
 275 583 292 628 308 673 c 0
 312 680 311 689 308 696 c 1
 271 672 244 632 202 618 c 1
 187 622 158 621 158 641 c 0
259 524 m 1
 271 537 274 539 289 528 c 1
 306 499 321 469 340 441 c 0
 349 432 356 422 362 411 c 1
 351 386 342 361 331 336 c 0
 328 327 328 316 327 306 c 0
 323 306 320 306 316 306 c 0
 291 323 277 353 259 376 c 1
 234 387 207 394 181 402 c 0
 179 407 178 411 176 416 c 1
 197 424 217 435 240 432 c 0
 252 430 264 426 276 423 c 0
 282 422 291 416 285 425 c 0
 272 457 262 490 259 524 c 1
EndSplineSet
EndChar

StartChar: uni5145
Encoding: 20805 20805 65
Width: 1024
VWidth: 0
Flags: HW
LayerCount: 2
Fore
SplineSet
390 666 m 1
 390 693 416 733 442 739 c 1
 489 733 535 702 557 661 c 0
 565 639 554 615 539 599 c 0
 521 579 489 576 467 589 c 0
 451 600 452 622 441 636 c 0
 426 652 397 641 390 666 c 1
202 568 m 1
 358 591 514 611 671 632 c 0
 711 634 723 595 736 564 c 1
 739 543 718 529 701 520 c 1
 655 525 612 542 567 553 c 1
 503 555 437 557 377 532 c 0
 334 516 288 505 247 483 c 0
 227 471 204 485 195 505 c 0
 182 525 184 552 202 568 c 1
392 521 m 1
 430 523 456 514 480 484 c 1
 448 428 398 385 348 346 c 0
 330 333 318 337 306 354 c 1
 337 408 364 465 392 521 c 1
215 309 m 0
 253 367 326 362 388 351 c 0
 400 347 413 344 421 334 c 0
 427 325 418 314 409 311 c 0
 352 308 303 297 269 249 c 1
 249 231 209 231 203 263 c 0
 204 279 208 295 215 309 c 0
562 500 m 0
 586 489 615 485 634 467 c 0
 641 460 635 445 628 439 c 0
 599 415 574 402 546 383 c 1
 480 311 416 238 351 165 c 1
 296 115 239 67 183 18 c 0
 164 4 136 -36 113 -10 c 1
 223 114 336 235 447 358 c 0
 476 386 498 420 519 454 c 0
 529 475 529 511 562 500 c 0
550 307 m 1
 579 301 624 287 616 249 c 1
 575 197 532 147 498 90 c 0
 484 71 471 38 490 20 c 1
 554 -10 759 -58 808 18 c 1
 811 46 813 75 816 103 c 0
 814 118 824 127 837 114 c 1
 845 94 853 73 861 53 c 0
 865 37 877 21 895 23 c 0
 915 21 938 17 941 -7 c 0
 955 -59 881 -86 846 -105 c 1
 754 -127 653 -132 561 -104 c 0
 499 -86 442 -57 420 6 c 0
 412 29 422 55 424 79 c 1
 458 154 486 254 550 307 c 1
EndSplineSet
EndChar

StartChar: uni6709
Encoding: 26377 26377 66
Width: 1024
VWidth: 0
Flags: HW
LayerCount: 2
Fore
SplineSet
99 571 m 1
 139 602 188 615 236 628 c 0
 325 646 412 675 502 687 c 1
 591 704 681 709 771 710 c 0
 811 711 862 709 876 663 c 0
 901 601 827 603 791 624 c 1
 748 640 703 635 658 634 c 0
 610 637 562 628 515 619 c 1
 436 594 354 580 280 542 c 1
 239 527 201 504 159 492 c 1
 101 464 87 528 99 571 c 1
453 771 m 0
 461 771 468 771 476 771 c 0
 501 770 519 748 540 736 c 1
 567 706 526 671 517 641 c 0
 489 581 452 526 410 475 c 0
 380 440 358 397 322 367 c 0
 285 337 255 300 219 270 c 0
 206 253 173 244 175 273 c 1
 185 296 213 314 228 337 c 0
 265 387 302 437 333 491 c 0
 354 526 371 562 376 603 c 0
 384 652 404 699 409 749 c 1
 424 757 438 763 453 771 c 0
413 453 m 1
 433 452 450 444 467 434 c 1
 467 410 468 386 466 362 c 0
 457 293 461 224 460 155 c 0
 457 85 473 16 472 -54 c 0
 473 -83 461 -120 438 -136 c 1
 420 -141 409 -128 399 -114 c 0
 378 -95 373 -68 369 -42 c 1
 357 -10 371 22 372 54 c 0
 373 112 380 169 388 226 c 0
 395 266 398 307 397 348 c 1
 402 382 382 428 413 453 c 1
444 322 m 1
 444 322 l 2
 446 328 447 333 449 339 c 0
 496 363 549 374 586 350 c 1
 532 302 528 305 475 296 c 1
 468 306 451 312 444 322 c 1
474 134 m 1
 442 155 436 175 480 192 c 1
 513 198 561 208 592 195 c 1
 544 144 516 135 474 134 c 1
468 475 m 1
 511 488 553 518 600 515 c 1
 637 495 697 500 714 454 c 1
 714 390 715 327 718 263 c 0
 720 161 733 57 721 -45 c 1
 708 -94 699 -179 635 -183 c 1
 617 -173 612 -143 600 -115 c 0
 593 -100 571 -81 572 -69 c 0
 573 -61 592 -90 605 -75 c 0
 615 -64 619 -45 620 -33 c 0
 628 103 628 238 630 374 c 1
 624 412 640 492 579 480 c 0
 546 471 476 415 468 475 c 1
EndSplineSet
EndChar

StartChar: uni7232
Encoding: 29234 29234 67
Width: 1024
VWidth: 0
Flags: HW
LayerCount: 2
Fore
SplineSet
283 593 m 2
 283 593 l 1
 306 597 328 600 352 598 c 1
 373 577 389 563 400 535 c 1
 390 518 392 518 371 512 c 1
 365 516 360 520 354 524 c 0
 331 537 307 550 283 562 c 0
 281 568 280 572 278 578 c 0
 280 583 281 588 283 593 c 2
532 809 m 1
 532 809 l 1
 559 795 574 783 595 759 c 1
 597 745 598 739 588 728 c 1
 568 722 547 715 526 712 c 0
 487 701 453 690 418 669 c 0
 397 657 374 648 352 638 c 0
 350 642 348 646 346 650 c 0
 388 693 433 731 478 771 c 0
 492 782 503 796 515 809 c 0
 520 810 526 809 532 809 c 1
414 647 m 0
 426 656 442 657 457 661 c 1
 481 649 494 636 505 610 c 1
 507 585 516 576 493 563 c 1
 485 566 478 570 470 573 c 0
 449 600 426 616 409 643 c 0
 411 644 412 646 414 647 c 0
633 719 m 0
 670 717 712 701 709 656 c 1
 701 625 665 624 645 604 c 0
 561 499 452 412 369 304 c 0
 332 261 294 217 249 182 c 1
 234 178 207 138 200 166 c 1
 225 198 250 230 275 262 c 0
 364 377 462 486 551 601 c 0
 564 623 592 640 593 667 c 1
 578 696 605 719 633 719 c 0
178 449 m 1
 236 466 293 482 353 487 c 1
 434 500 514 520 595 536 c 0
 620 542 648 542 668 560 c 0
 680 571 692 609 710 582 c 0
 721 567 735 553 744 537 c 1
 750 515 733 500 711 503 c 0
 682 506 668 473 647 457 c 0
 630 443 619 425 610 405 c 1
 607 380 579 385 588 409 c 0
 596 432 600 457 613 478 c 1
 628 490 627 519 602 513 c 0
 557 507 513 495 469 483 c 0
 406 463 342 446 282 418 c 0
 258 411 240 392 220 377 c 0
 206 367 200 347 185 339 c 1
 158 336 143 364 148 388 c 0
 153 411 162 432 178 449 c 1
498 384 m 1
 538 395 579 394 620 398 c 0
 633 400 646 398 658 402 c 0
 687 425 703 427 739 424 c 1
 747 414 756 409 752 395 c 0
 752 391 750 387 746 385 c 0
 737 378 730 368 720 363 c 0
 669 333 631 300 589 257 c 0
 572 236 566 261 574 275 c 0
 592 298 639 339 634 369 c 1
 607 363 581 352 555 343 c 0
 537 332 522 311 499 311 c 0
 489 308 475 317 473 327 c 0
 473 357 474 367 498 384 c 1
384 233 m 0
 384 233 l 1
 508 242 649 255 768 289 c 1
 774 296 780 304 790 300 c 0
 811 300 829 287 848 280 c 1
 873 258 879 239 886 207 c 0
 892 138 875 80 851 15 c 1
 822 -41 795 -88 750 -133 c 0
 731 -156 707 -175 681 -191 c 1
 647 -192 615 -194 600 -158 c 0
 589 -134 613 -119 612 -91 c 1
 617 -79 605 -70 601 -59 c 0
 598 -51 589 -42 600 -36 c 1
 617 -49 638 -73 660 -71 c 1
 687 -37 716 -4 735 36 c 1
 757 99 778 158 781 226 c 0
 785 248 767 257 748 251 c 0
 672 235 596 223 520 211 c 1
 474 198 427 190 382 173 c 1
 342 169 347 232 384 233 c 0
158 115 m 1
 197 115 226 120 256 90 c 1
 272 65 288 41 295 12 c 0
 302 -11 298 -22 284 -40 c 1
 237 -38 212 -6 192 32 c 0
 181 53 165 72 151 92 c 1
 153 100 156 107 158 115 c 1
288 160 m 0
 335 154 360 155 397 120 c 0
 420 92 425 72 425 37 c 1
 410 25 406 25 386 22 c 1
 337 41 310 106 283 148 c 0
 285 152 286 156 288 160 c 0
469 155 m 1
 481 171 481 166 502 169 c 0
 536 166 562 159 583 130 c 1
 591 108 599 96 593 73 c 1
 572 65 565 67 542 72 c 0
 497 81 491 120 469 155 c 1
650 216 m 1
 682 214 704 212 726 188 c 0
 751 162 750 140 749 107 c 1
 732 89 736 85 711 89 c 0
 684 89 677 151 656 164 c 0
 647 174 642 188 638 201 c 1
 642 206 646 211 650 216 c 1
EndSplineSet
EndChar

StartChar: uni7406
Encoding: 29702 29702 68
Width: 1024
VWidth: 0
Flags: HW
LayerCount: 2
Fore
SplineSet
130 638 m 1
 183 662 230 691 285 706 c 0
 315 712 344 708 372 695 c 0
 410 683 367 647 347 641 c 0
 320 631 287 640 260 626 c 1
 222 614 181 605 141 603 c 0
 126 605 128 625 130 638 c 1
228 625 m 1
 228 625 l 1
 258 601 293 578 310 543 c 1
 313 426 293 310 304 193 c 0
 303 171 307 148 301 126 c 1
 287 105 257 95 233 90 c 1
 235 115 232 141 230 166 c 0
 215 300 227 434 219 568 c 0
 221 586 197 623 228 625 c 1
115 310 m 1
 116 320 124 327 129 335 c 1
 196 363 265 384 333 407 c 0
 350 413 381 411 381 387 c 1
 331 343 283 286 216 271 c 1
 179 272 144 287 115 310 c 1
76 -14 m 1
 174 60 279 116 387 178 c 0
 432 205 440 195 412 167 c 0
 333 92 255 17 198 -81 c 1
 171 -91 117 -108 99 -79 c 0
 84 -54 72 -39 76 -14 c 1
391 653 m 1
 404 643 418 632 429 619 c 0
 448 600 462 578 473 553 c 1
 486 484 495 415 507 346 c 0
 513 329 508 281 483 300 c 0
 466 314 454 336 446 357 c 0
 427 413 418 472 404 529 c 0
 396 570 387 611 391 653 c 1
566 634 m 1
 629 654 691 681 758 688 c 0
 804 694 857 717 897 681 c 1
 922 652 958 614 940 573 c 0
 899 502 879 421 841 348 c 0
 815 297 752 338 763 385 c 0
 770 436 793 484 810 532 c 1
 812 571 880 620 836 646 c 1
 785 648 732 638 681 626 c 0
 645 619 587 587 566 634 c 1
627 620 m 1
 627 620 l 1
 638 624 l 1
 717 621 691 524 695 472 c 0
 700 351 700 230 712 110 c 1
 737 58 702 -11 639 16 c 1
 598 53 626 120 616 170 c 1
 614 310 613 487 627 620 c 1
549 482 m 1
 617 513 676 538 747 514 c 1
 745 491 721 496 705 493 c 0
 665 489 629 473 590 466 c 0
 575 466 542 456 549 482 c 1
492 307 m 1
 529 326 572 327 611 340 c 1
 647 358 688 360 727 367 c 0
 751 368 784 392 798 360 c 1
 819 334 793 315 766 321 c 1
 693 311 621 291 549 275 c 1
 523 263 476 267 492 307 c 1
548 155 m 0
 548 155 l 1
 551 156 l 2
 590 176 633 189 674 204 c 0
 710 218 750 223 789 218 c 0
 814 216 831 190 822 166 c 1
 779 134 663 157 611 128 c 1
 589 122 533 118 548 155 c 0
458 -21 m 1
 459 -19 460 -16 461 -14 c 0
 577 13 694 44 813 52 c 0
 853 56 913 45 904 -8 c 1
 906 -59 850 -55 816 -43 c 1
 698 -45 567 -75 458 -21 c 1
EndSplineSet
EndChar

StartChar: uni7701
Encoding: 30465 30465 69
Width: 1024
VWidth: 0
Flags: HW
LayerCount: 2
Fore
SplineSet
308 579 m 1
 281 534 277 534 295 502 c 0
 308 475 299 451 261 449 c 1
 216 462 167 525 210 564 c 1
 239 552 275 557 308 579 c 1
414 711 m 1
 455 748 494 725 537 701 c 1
 544 684 546 672 539 653 c 0
 527 597 527 542 517 486 c 0
 511 452 463 451 452 484 c 1
 446 547 452 610 435 672 c 0
 428 685 421 698 414 711 c 1
763 567 m 1
 737 601 753 617 705 623 c 1
 728 641 719 668 732 683 c 1
 758 691 781 683 802 660 c 1
 818 629 831 611 834 579 c 1
 819 498 775 512 763 567 c 1
591 614 m 0
 593 613 594 613 596 612 c 0
 618 602 648 593 656 568 c 1
 678 535 634 531 616 512 c 0
 453 370 295 220 126 84 c 1
 107 76 78 31 65 63 c 1
 113 106 152 157 194 206 c 0
 313 326 441 437 548 568 c 1
 567 582 561 617 591 614 c 0
438 336 m 0
 440 337 442 337 444 338 c 0
 458 347 473 338 482 327 c 1
 494 252 481 173 479 98 c 0
 472 35 477 -28 478 -91 c 1
 471 -159 415 -130 423 -77 c 1
 421 46 420 168 419 291 c 0
 418 308 420 329 438 336 c 0
456 351 m 0
 509 367 562 381 616 395 c 0
 642 398 664 420 691 417 c 1
 711 410 731 401 743 382 c 0
 757 359 768 332 773 305 c 0
 780 183 774 60 766 -62 c 1
 751 -121 708 -150 688 -97 c 1
 690 -68 693 -38 695 -9 c 0
 699 96 699 201 693 306 c 0
 692 330 693 368 662 372 c 1
 608 345 547 345 490 330 c 1
 474 317 427 299 429 336 c 1
 438 341 447 346 456 351 c 0
461 204 m 1
 503 244 525 236 558 253 c 0
 576 257 605 273 615 254 c 1
 611 233 599 223 582 209 c 1
 542 202 514 190 461 204 c 1
461 84 m 1
 521 94 572 126 634 119 c 1
 647 99 645 96 624 82 c 1
 580 71 536 60 491 53 c 1
 473 56 449 62 461 84 c 1
396 -78 m 1
 466 -62 537 -46 607 -26 c 0
 634 -23 661 -22 688 -19 c 1
 706 -33 718 -47 701 -66 c 1
 652 -71 603 -75 556 -88 c 0
 512 -100 469 -114 423 -114 c 1
 405 -107 385 -99 396 -78 c 1
EndSplineSet
EndChar

StartChar: uni8278
Encoding: 33400 33400 70
Width: 1024
VWidth: 0
Flags: HW
LayerCount: 2
Fore
SplineSet
252 635 m 0
 255 639 260 640 264 641 c 0
 312 656 362 667 411 679 c 0
 429 682 447 689 465 695 c 0
 489 705 517 690 528 667 c 0
 533 654 522 643 512 638 c 0
 500 629 484 631 470 631 c 0
 446 629 421 622 398 615 c 0
 370 606 341 599 314 587 c 0
 296 576 273 583 261 599 c 0
 254 609 247 622 252 635 c 0
337 752 m 0
 344 756 352 761 360 763 c 0
 380 770 401 757 412 740 c 0
 422 730 416 715 415 703 c 0
 421 663 450 633 461 595 c 0
 464 580 471 565 470 550 c 0
 472 537 457 528 446 534 c 0
 425 542 414 564 403 582 c 0
 378 618 357 655 334 692 c 0
 327 704 312 711 311 726 c 0
 313 740 327 746 337 752 c 0
564 710 m 0
 577 724 599 726 617 727 c 0
 635 727 652 730 670 732 c 0
 696 735 723 736 747 724 c 0
 759 718 772 708 773 693 c 0
 774 684 767 678 759 677 c 0
 748 676 736 674 724 675 c 0
 702 677 680 673 658 670 c 0
 640 667 621 665 603 661 c 0
 591 658 578 663 568 671 c 0
 556 680 554 699 564 710 c 0
615 807 m 0
 622 809 630 811 637 812 c 0
 660 808 682 794 704 778 c 0
 712 767 703 757 693 751 c 0
 682 735 675 715 668 697 c 0
 660 673 650 650 640 627 c 0
 634 609 624 591 608 579 c 0
 600 572 588 566 579 575 c 0
 569 587 572 604 577 617 c 0
 584 644 600 668 609 694 c 0
 616 712 616 733 610 751 c 0
 608 764 597 772 592 784 c 0
 591 797 605 803 615 807 c 0
EndSplineSet
EndChar

StartChar: uni8499
Encoding: 33945 33945 71
Width: 1024
VWidth: 0
Flags: HW
LayerCount: 2
Fore
SplineSet
176 671 m 0
 185 667 194 661 205 661 c 0
 232 660 258 669 283 678 c 0
 311 688 339 699 368 706 c 0
 392 715 419 704 435 685 c 0
 445 673 431 660 420 657 c 0
 375 632 322 632 275 614 c 0
 251 606 238 582 215 572 c 0
 203 566 189 572 181 583 c 0
 170 599 152 612 150 632 c 0
 146 649 158 669 176 671 c 0
264 778 m 0
 266 779 268 779 270 779 c 0
 280 775 291 771 302 768 c 0
 320 763 329 745 336 729 c 0
 348 703 356 676 364 648 c 0
 370 626 380 605 385 582 c 0
 387 570 394 555 386 544 c 0
 377 534 362 532 350 536 c 0
 330 543 321 563 313 581 c 0
 294 617 280 654 265 692 c 0
 256 710 248 730 251 751 c 0
 253 760 255 773 264 778 c 0
516 727 m 1
 516 727 l 2
 517 728 518 727 519 727 c 0
 530 729 538 729 546 733 c 0
 571 741 596 746 622 751 c 0
 644 755 666 758 688 757 c 0
 698 757 706 752 713 746 c 0
 722 738 730 726 726 714 c 0
 722 704 717 694 709 686 c 0
 698 677 683 680 670 681 c 0
 632 681 595 686 557 689 c 0
 545 689 532 690 523 698 c 0
 515 704 508 718 516 727 c 1
577 802 m 0
 579 804 582 804 585 805 c 0
 599 806 612 809 626 807 c 0
 646 805 661 786 660 766 c 0
 659 728 636 695 622 661 c 0
 614 643 611 624 611 604 c 0
 609 592 618 578 607 569 c 0
 591 557 568 560 555 574 c 0
 547 581 544 592 546 602 c 0
 548 619 555 634 561 650 c 0
 568 674 572 700 574 725 c 0
 575 743 577 761 574 779 c 0
 574 787 572 796 577 802 c 0
219 504 m 0
 220 504 221 503 222 503 c 0
 229 498 236 491 242 485 c 0
 251 477 253 464 252 453 c 0
 251 439 249 426 246 412 c 0
 243 396 238 379 224 370 c 0
 213 362 197 362 186 369 c 0
 175 375 170 389 170 401 c 0
 170 408 170 416 176 421 c 0
 182 425 190 428 192 436 c 0
 196 447 196 459 195 470 c 0
 193 480 192 491 198 500 c 0
 202 507 212 507 219 504 c 0
275 512 m 0
 278 514 281 516 284 517 c 0
 326 533 370 543 414 551 c 0
 470 563 527 565 584 572 c 0
 638 580 692 588 746 597 c 1
 776 597 800 573 812 547 c 0
 823 529 839 498 816 482 c 0
 800 474 778 468 761 478 c 1
 754 491 749 512 729 500 c 0
 704 489 680 478 657 463 c 0
 644 459 624 450 638 469 c 0
 649 485 665 496 676 512 c 0
 693 534 663 550 643 544 c 1
 595 545 549 540 502 530 c 0
 428 516 358 503 281 485 c 0
 260 482 253 507 275 512 c 0
344 453 m 0
 348 454 353 452 356 450 c 0
 364 443 374 438 385 439 c 0
 432 438 477 458 521 472 c 0
 533 475 542 482 553 488 c 0
 562 493 575 492 581 483 c 0
 589 474 584 461 581 451 c 0
 579 443 572 435 563 437 c 0
 549 441 535 435 522 431 c 0
 477 418 433 399 386 390 c 0
 363 383 339 397 328 417 c 0
 319 431 329 449 344 453 c 0
288 327 m 0
 300 330 312 324 324 323 c 0
 350 323 376 327 401 333 c 0
 441 343 481 353 516 375 c 0
 537 391 569 393 590 377 c 0
 598 369 607 356 600 345 c 0
 592 335 578 336 567 339 c 0
 538 340 510 336 482 332 c 0
 431 322 377 318 329 298 c 0
 316 293 304 286 297 274 c 0
 287 264 271 271 262 278 c 0
 252 283 240 302 257 308 c 0
 269 311 276 323 288 327 c 0
424 331 m 0
 424 331 l 1
 425 331 l 1
 427 331 l 2
 440 326 455 314 456 299 c 0
 456 274 439 253 420 239 c 0
 396 222 372 204 347 187 c 0
 321 170 296 154 270 137 c 0
 254 129 242 122 224 109 c 0
 213 106 203 113 212 125 c 0
 223 140 237 145 252 155 c 0
 294 186 340 212 374 252 c 0
 386 267 399 283 405 302 c 0
 408 313 413 326 424 331 c 0
406 248 m 1
 436 258 463 235 484 216 c 0
 520 187 550 150 587 122 c 0
 651 79 724 45 802 39 c 0
 844 33 875 31 917 22 c 0
 946 18 953 -4 916 -1 c 0
 853 -1 800 -46 738 -52 c 1
 695 -20 653 14 608 43 c 0
 541 83 492 147 433 197 c 1
 423 212 379 230 406 248 c 1
425 223 m 0
 428 221 431 219 432 216 c 0
 436 198 429 179 416 166 c 0
 404 151 391 127 372 110 c 1
 349 73 306 56 277 25 c 1
 252 11 230 -1 206 -15 c 0
 193 -22 180 -14 192 -3 c 0
 210 8 222 19 240 37 c 0
 253 45 267 60 280 69 c 0
 312 89 334 118 357 148 c 0
 371 163 378 182 390 199 c 0
 400 208 409 226 425 223 c 0
478 182 m 0
 478 182 l 1
 487 176 487 161 488 151 c 0
 482 136 470 117 458 101 c 0
 441 69 423 33 394 9 c 0
 371 -10 349 -26 326 -46 c 0
 300 -66 270 -86 239 -97 c 0
 220 -105 203 -107 184 -102 c 1
 201 -92 218 -82 234 -72 c 0
 290 -35 347 1 391 52 c 0
 418 82 431 121 450 155 c 0
 455 167 464 182 478 182 c 0
501 146 m 0
 501 146 l 1
 504 146 l 1
 506 146 l 2
 528 142 544 120 543 98 c 0
 541 79 538 59 539 40 c 0
 540 2 525 -34 505 -65 c 0
 484 -94 461 -121 436 -147 c 0
 418 -163 400 -184 374 -188 c 0
 353 -191 326 -187 318 -165 c 0
 311 -151 322 -137 335 -131 c 1
 353 -131 371 -130 385 -115 c 0
 417 -88 452 -61 467 -20 c 0
 475 5 481 31 490 56 c 0
 494 73 501 92 493 108 c 1
 482 120 481 143 501 146 c 0
705 301 m 0
 714 301 721 296 727 291 c 0
 737 283 746 273 755 264 c 0
 761 257 767 248 762 239 c 0
 755 229 742 226 731 226 c 0
 717 227 703 222 691 215 c 0
 671 206 653 195 635 182 c 0
 619 168 597 163 577 159 c 0
 568 161 558 162 549 164 c 1
 561 175 573 185 586 195 c 0
 609 211 631 227 651 247 c 0
 663 257 671 271 680 283 c 0
 687 290 694 300 705 301 c 0
EndSplineSet
EndChar

StartChar: uni9675
Encoding: 38517 38517 72
Width: 1024
VWidth: 0
Flags: HW
LayerCount: 2
Fore
SplineSet
145 679 m 1
 153 671 159 662 167 654 c 0
 189 639 179 612 180 589 c 0
 172 463 166 336 168 210 c 0
 170 131 168 52 179 -26 c 0
 185 -51 189 -82 159 -92 c 0
 139 -93 120 -59 111 -39 c 1
 110 42 107 124 104 205 c 0
 105 332 112 459 122 586 c 1
 130 616 115 658 145 679 c 1
158 641 m 0
 157 651 171 670 158 669 c 1
 211 686 264 706 317 725 c 0
 333 733 350 728 367 728 c 1
 382 713 400 698 393 674 c 0
 386 658 368 650 353 643 c 1
 335 612 317 581 299 550 c 0
 288 532 274 520 259 538 c 1
 275 583 292 628 308 673 c 0
 312 680 311 689 308 696 c 1
 271 672 244 632 202 618 c 1
 187 622 158 621 158 641 c 0
259 524 m 1
 271 537 274 539 289 528 c 1
 306 499 321 469 340 441 c 0
 349 432 356 422 362 411 c 1
 351 386 342 361 331 336 c 0
 328 327 328 316 327 306 c 0
 323 306 320 306 316 306 c 0
 291 323 277 353 259 376 c 1
 234 387 207 394 181 402 c 0
 179 407 178 411 176 416 c 1
 197 424 217 435 240 432 c 0
 252 430 264 426 276 423 c 0
 282 422 291 416 285 425 c 0
 272 457 262 490 259 524 c 1
460 641 m 1
 469 647 478 652 487 658 c 0
 539 668 589 676 637 700 c 0
 654 707 671 713 687 722 c 1
 708 725 727 700 738 684 c 1
 736 676 735 670 733 662 c 1
 712 662 691 662 670 662 c 1
 617 647 564 634 516 606 c 0
 505 599 488 597 477 605 c 0
 465 612 459 627 460 641 c 1
580 761 m 1
 609 777 628 772 649 747 c 1
 645 677 624 609 625 538 c 1
 618 537 610 529 603 529 c 0
 596 529 589 536 582 537 c 1
 581 612 589 687 580 761 c 1
409 508 m 1
 418 509 427 509 436 510 c 0
 519 529 601 549 684 569 c 0
 712 574 737 588 763 599 c 0
 774 606 787 604 800 604 c 0
 818 598 833 582 842 565 c 1
 841 550 845 531 830 522 c 0
 816 517 802 526 789 529 c 0
 741 530 693 535 647 519 c 1
 586 504 526 484 466 465 c 0
 451 460 432 454 418 464 c 0
 401 471 403 494 409 508 c 1
499 452 m 0
 499 466 500 480 510 491 c 0
 515 492 521 501 524 495 c 0
 534 468 553 445 554 415 c 0
 562 368 541 339 501 317 c 1
 446 306 391 290 334 287 c 1
 324 296 310 304 329 307 c 0
 376 321 422 342 464 367 c 0
 492 388 497 418 499 452 c 0
656 531 m 1
 670 523 686 519 686 502 c 0
 690 485 690 468 690 451 c 1
 703 430 714 408 738 397 c 0
 776 387 812 382 851 385 c 1
 862 374 867 370 858 355 c 1
 815 349 773 333 729 339 c 0
 705 340 683 347 660 352 c 1
 646 379 638 407 639 438 c 0
 637 469 640 504 656 531 c 1
401 262 m 1
 404 291 406 313 439 315 c 1
 480 237 528 164 590 100 c 1
 671 31 733 -14 836 -50 c 1
 880 -60 925 -69 969 -78 c 0
 982 -77 981 -86 979 -96 c 1
 957 -96 943 -94 919 -97 c 0
 896 -103 885 -111 872 -118 c 0
 840 -126 806 -132 774 -139 c 1
 752 -139 733 -125 714 -117 c 0
 646 -69 586 -10 527 49 c 1
 477 114 426 183 401 262 c 1
536 305 m 1
 554 305 575 304 587 288 c 1
 604 276 606 255 599 237 c 1
 521 145 442 51 342 -19 c 0
 326 -27 305 -25 292 -13 c 1
 374 71 472 148 525 254 c 0
 533 270 533 288 536 305 c 1
634 265 m 1
 647 266 661 265 674 266 c 0
 694 267 714 279 734 275 c 1
 753 265 760 242 755 222 c 0
 725 116 646 31 574 -49 c 0
 541 -85 491 -123 443 -133 c 1
 428 -130 404 -143 401 -122 c 1
 452 -91 501 -60 539 -13 c 1
 582 51 628 114 663 182 c 0
 673 197 679 223 660 233 c 1
 651 244 617 247 634 265 c 1
EndSplineSet
EndChar
